<svg width="22" height="24" viewBox="0 0 22 24" fill="currentColor" xmlns="http://www.w3.org/2000/svg">
<path fill-rule="evenodd" clip-rule="evenodd" d="M21.9323 20.2957V8.56389C21.9357 8.32903 21.9151 8.09443 21.8708 7.86361C21.7348 7.05651 21.3228 6.31906 20.7029 5.7729C20.0829 5.22673 19.292 4.90446 18.4606 4.85925C18.3208 4.85101 18.3208 4.80158 18.3208 4.69996V3.8761C18.321 3.2542 18.1689 2.64139 17.8772 2.08944C17.5855 1.53749 17.1629 1.06263 16.6451 0.704961C16.1272 0.347295 15.5294 0.117337 14.902 0.034516C14.2746 -0.0483052 13.6362 0.0184435 13.0406 0.229123C9.88197 1.34226 6.72333 2.4618 3.5647 3.58775C2.61512 3.91928 1.79398 4.53272 1.21503 5.34311C0.63608 6.15349 0.327971 7.1207 0.333383 8.11077V20.3699C0.332426 20.6669 0.368092 20.9629 0.439603 21.2514C0.633886 22.0372 1.09216 22.7357 1.74037 23.234C2.38859 23.7323 3.18888 24.0013 4.01194 23.9976H18.0749C18.2755 24.0046 18.4765 23.9963 18.6758 23.9729C19.5875 23.8691 20.4268 23.4345 21.0293 22.7542C21.6317 22.074 21.9537 21.1972 21.9323 20.2957ZM20.8142 8.55291V20.3204C20.825 20.6631 20.7644 21.0042 20.6362 21.323C20.5079 21.6418 20.3147 21.9315 20.0684 22.1742C19.8221 22.417 19.5278 22.6077 19.2038 22.7348C18.8797 22.8618 18.5326 22.9224 18.1839 22.9129H4.05666C3.71044 22.9217 3.36604 22.8608 3.04463 22.7341C2.72321 22.6074 2.43155 22.4174 2.18757 22.1759C1.94359 21.9344 1.75244 21.6465 1.62586 21.3298C1.49928 21.013 1.43994 20.6742 1.45148 20.3342V8.5584C1.42611 7.94439 1.63138 7.34264 2.02825 6.86766C2.42512 6.39268 2.98589 6.07762 3.60383 5.98245C3.75256 5.96313 3.90241 5.95356 4.05237 5.9538C4.08548 5.95371 4.11859 5.95411 4.1517 5.95498H18.2237C18.2345 5.95487 18.2453 5.95482 18.2562 5.95485C18.8387 5.95299 19.4044 6.14786 19.8584 6.50713C20.3173 6.87034 20.6335 7.37899 20.7527 7.94599C20.7969 8.14529 20.8176 8.34894 20.8142 8.55291ZM17.0658 4.85925C17.0146 4.85511 16.9632 4.8551 16.912 4.85924H4.14611C3.89305 4.85194 3.63979 4.86387 3.3886 4.89494C3.44857 4.85174 3.51103 4.8122 3.57562 4.77647C3.69899 4.70628 3.83037 4.65015 3.96721 4.60934C7.09976 3.49438 10.236 2.37941 13.376 1.26445C13.8067 1.10368 14.2709 1.0488 14.7281 1.10459C15.1853 1.16038 15.6217 1.32514 15.9992 1.58453C16.3768 1.84392 16.6841 2.19007 16.8943 2.59282C17.1046 2.99557 17.2114 3.44272 17.2055 3.89532V4.71919C17.2066 4.75823 17.2027 4.78742 17.1922 4.80875C17.1745 4.85029 17.1366 4.86636 17.0658 4.85925Z" fill="currentColor"/>
</svg>
