<svg width="33" height="32" viewBox="0 0 33 32" fill="none" xmlns="http://www.w3.org/2000/svg">
<mask id="path-1-outside-1_3013_2655" maskUnits="userSpaceOnUse" x="5.125" y="3" width="23" height="26" fill="black">
<rect fill="white" x="5.125" y="3" width="23" height="26"/>
<path fill-rule="evenodd" clip-rule="evenodd" d="M27.724 24.2957V12.5639C27.7274 12.329 27.7068 12.0944 27.6625 11.8636C27.5265 11.0565 27.1145 10.3191 26.4946 9.7729C25.8746 9.22673 25.0837 8.90446 24.2523 8.85925C24.1125 8.85101 24.1125 8.80158 24.1125 8.69997V7.8761C24.1127 7.2542 23.9606 6.64139 23.6689 6.08944C23.3772 5.53749 22.9546 5.06263 22.4368 4.70496C21.9189 4.3473 21.321 4.11734 20.6937 4.03452C20.0663 3.95169 19.4279 4.01844 18.8323 4.22912C15.6737 5.34226 12.515 6.4618 9.35638 7.58775C8.40681 7.91928 7.58567 8.53272 7.00672 9.34311C6.42777 10.1535 6.11966 11.1207 6.12507 12.1108V24.3699C6.12411 24.6669 6.15978 24.9629 6.23129 25.2514C6.42557 26.0372 6.88385 26.7357 7.53206 27.234C8.18027 27.7323 8.98056 28.0013 9.80362 27.9976H23.8666C24.0672 28.0046 24.2681 27.9963 24.4675 27.9729C25.3792 27.8691 26.2185 27.4345 26.821 26.7542C27.4234 26.074 27.7454 25.1972 27.724 24.2957ZM26.6059 12.5529V24.3204C26.6167 24.6631 26.5561 25.0042 26.4279 25.323C26.2996 25.6418 26.1064 25.9315 25.8601 26.1742C25.6137 26.417 25.3195 26.6077 24.9955 26.7348C24.6714 26.8618 24.3243 26.9224 23.9756 26.9129H9.84835C9.50213 26.9217 9.15773 26.8608 8.83631 26.7341C8.51489 26.6074 8.22324 26.4174 7.97926 26.1759C7.73528 25.9344 7.54413 25.6465 7.41755 25.3298C7.29097 25.013 7.23163 24.6742 7.24317 24.3342V12.5584C7.21779 11.9444 7.42307 11.3426 7.81994 10.8677C8.21681 10.3927 8.77757 10.0776 9.39552 9.98245C9.54425 9.96313 9.6941 9.95356 9.84406 9.9538C9.87717 9.95371 9.91028 9.95411 9.94339 9.95498H24.0153C24.0262 9.95487 24.037 9.95482 24.0479 9.95485C24.6304 9.95299 25.1961 10.1479 25.6501 10.5071C26.109 10.8703 26.4251 11.379 26.5444 11.946C26.5886 12.1453 26.6092 12.3489 26.6059 12.5529ZM22.8575 8.85925C22.8063 8.85511 22.7548 8.8551 22.7037 8.85924H9.9378C9.68473 8.85194 9.43147 8.86387 9.18028 8.89494C9.24026 8.85174 9.30272 8.8122 9.36731 8.77647C9.49068 8.70628 9.62206 8.65015 9.7589 8.60934C12.8914 7.49438 16.0277 6.37941 19.1677 5.26445C19.5984 5.10368 20.0626 5.0488 20.5198 5.10459C20.977 5.16038 21.4134 5.32514 21.7909 5.58453C22.1685 5.84392 22.4758 6.19007 22.686 6.59282C22.8963 6.99557 23.0031 7.44272 22.9972 7.89532V8.71919C22.9982 8.75823 22.9944 8.78742 22.9839 8.80875C22.9661 8.85029 22.9283 8.86636 22.8575 8.85925Z"/>
</mask>
<path fill-rule="evenodd" clip-rule="evenodd" d="M27.724 24.2957V12.5639C27.7274 12.329 27.7068 12.0944 27.6625 11.8636C27.5265 11.0565 27.1145 10.3191 26.4946 9.7729C25.8746 9.22673 25.0837 8.90446 24.2523 8.85925C24.1125 8.85101 24.1125 8.80158 24.1125 8.69997V7.8761C24.1127 7.2542 23.9606 6.64139 23.6689 6.08944C23.3772 5.53749 22.9546 5.06263 22.4368 4.70496C21.9189 4.3473 21.321 4.11734 20.6937 4.03452C20.0663 3.95169 19.4279 4.01844 18.8323 4.22912C15.6737 5.34226 12.515 6.4618 9.35638 7.58775C8.40681 7.91928 7.58567 8.53272 7.00672 9.34311C6.42777 10.1535 6.11966 11.1207 6.12507 12.1108V24.3699C6.12411 24.6669 6.15978 24.9629 6.23129 25.2514C6.42557 26.0372 6.88385 26.7357 7.53206 27.234C8.18027 27.7323 8.98056 28.0013 9.80362 27.9976H23.8666C24.0672 28.0046 24.2681 27.9963 24.4675 27.9729C25.3792 27.8691 26.2185 27.4345 26.821 26.7542C27.4234 26.074 27.7454 25.1972 27.724 24.2957ZM26.6059 12.5529V24.3204C26.6167 24.6631 26.5561 25.0042 26.4279 25.323C26.2996 25.6418 26.1064 25.9315 25.8601 26.1742C25.6137 26.417 25.3195 26.6077 24.9955 26.7348C24.6714 26.8618 24.3243 26.9224 23.9756 26.9129H9.84835C9.50213 26.9217 9.15773 26.8608 8.83631 26.7341C8.51489 26.6074 8.22324 26.4174 7.97926 26.1759C7.73528 25.9344 7.54413 25.6465 7.41755 25.3298C7.29097 25.013 7.23163 24.6742 7.24317 24.3342V12.5584C7.21779 11.9444 7.42307 11.3426 7.81994 10.8677C8.21681 10.3927 8.77757 10.0776 9.39552 9.98245C9.54425 9.96313 9.6941 9.95356 9.84406 9.9538C9.87717 9.95371 9.91028 9.95411 9.94339 9.95498H24.0153C24.0262 9.95487 24.037 9.95482 24.0479 9.95485C24.6304 9.95299 25.1961 10.1479 25.6501 10.5071C26.109 10.8703 26.4251 11.379 26.5444 11.946C26.5886 12.1453 26.6092 12.3489 26.6059 12.5529ZM22.8575 8.85925C22.8063 8.85511 22.7548 8.8551 22.7037 8.85924H9.9378C9.68473 8.85194 9.43147 8.86387 9.18028 8.89494C9.24026 8.85174 9.30272 8.8122 9.36731 8.77647C9.49068 8.70628 9.62206 8.65015 9.7589 8.60934C12.8914 7.49438 16.0277 6.37941 19.1677 5.26445C19.5984 5.10368 20.0626 5.0488 20.5198 5.10459C20.977 5.16038 21.4134 5.32514 21.7909 5.58453C22.1685 5.84392 22.4758 6.19007 22.686 6.59282C22.8963 6.99557 23.0031 7.44272 22.9972 7.89532V8.71919C22.9982 8.75823 22.9944 8.78742 22.9839 8.80875C22.9661 8.85029 22.9283 8.86636 22.8575 8.85925Z" fill="currentColor"/>
<path d="M27.724 12.5639L27.424 12.5596V12.5639H27.724ZM27.724 24.2957H27.4239L27.4241 24.3029L27.724 24.2957ZM27.6625 11.8636L27.3666 11.9135L27.3679 11.9201L27.6625 11.8636ZM24.2523 8.85925L24.2346 9.15873L24.236 9.1588L24.2523 8.85925ZM24.1125 7.8761L23.8125 7.87601V7.8761H24.1125ZM23.6689 6.08944L23.4036 6.22961L23.6689 6.08944ZM18.8323 4.22912L18.932 4.51207L18.9323 4.51195L18.8323 4.22912ZM9.35638 7.58775L9.45527 7.87099L9.45712 7.87033L9.35638 7.58775ZM6.12507 12.1108H6.42507L6.42507 12.1091L6.12507 12.1108ZM6.12507 24.3699L6.42507 24.3708V24.3699H6.12507ZM6.23129 25.2514L6.52252 25.1794L6.52248 25.1793L6.23129 25.2514ZM9.80362 27.9976V27.6976L9.80228 27.6976L9.80362 27.9976ZM23.8666 27.9976L23.8769 27.6976H23.8666V27.9976ZM24.4675 27.9729L24.4336 27.6748L24.4326 27.675L24.4675 27.9729ZM26.6059 24.3204H26.3057L26.306 24.3299L26.6059 24.3204ZM26.6059 12.5529L26.3059 12.548V12.5529H26.6059ZM23.9756 26.9129L23.9838 26.6129H23.9756V26.9129ZM9.84835 26.9129V26.6128L9.84073 26.613L9.84835 26.9129ZM7.41755 25.3298L7.69612 25.2184L7.41755 25.3298ZM7.24317 24.3342L7.54317 24.3444V24.3342H7.24317ZM7.24317 12.5584H7.54343L7.54292 12.546L7.24317 12.5584ZM9.39552 9.98245L9.35687 9.68486L9.34985 9.68594L9.39552 9.98245ZM9.84406 9.9538L9.8436 10.2538L9.84482 10.2538L9.84406 9.9538ZM9.94339 9.95498L9.93549 10.255H9.94339V9.95498ZM24.0153 9.95498V10.255L24.0184 10.255L24.0153 9.95498ZM24.0479 9.95485L24.0472 10.2549L24.0488 10.2548L24.0479 9.95485ZM25.6501 10.5071L25.4639 10.7424V10.7424L25.6501 10.5071ZM26.5444 11.946L26.2508 12.0077L26.2515 12.0109L26.5444 11.946ZM22.8575 8.85925L22.8875 8.56069L22.8817 8.56022L22.8575 8.85925ZM22.7037 8.85924V9.15924H22.7158L22.7279 9.15826L22.7037 8.85924ZM9.9378 8.85924L9.92914 9.15924H9.9378V8.85924ZM9.18028 8.89494L9.00496 8.6515L9.2171 9.19267L9.18028 8.89494ZM9.36731 8.77647L9.51253 9.039L9.51566 9.03722L9.36731 8.77647ZM9.7589 8.60934L9.84464 8.89683L9.85213 8.89459L9.8595 8.89197L9.7589 8.60934ZM19.1677 5.26445L19.2681 5.54719L19.2726 5.5455L19.1677 5.26445ZM20.5198 5.10459L20.4834 5.40238L20.5198 5.10459ZM22.9972 7.89532L22.6972 7.89142V7.89532H22.9972ZM22.9972 8.71919H22.6971L22.6973 8.72701L22.9972 8.71919ZM22.9839 8.80875L22.7149 8.67593L22.7113 8.68327L22.7081 8.6908L22.9839 8.80875ZM27.424 12.5639V24.2957H28.024V12.5639H27.424ZM27.3679 11.9201C27.4083 12.1309 27.4271 12.3451 27.424 12.5596L28.024 12.5682C28.0276 12.3129 28.0052 12.058 27.9571 11.8071L27.3679 11.9201ZM26.2963 9.998C26.8651 10.4991 27.2422 11.1749 27.3667 11.9135L27.9583 11.8137C27.8108 10.9381 27.3639 10.139 26.6929 9.54779L26.2963 9.998ZM24.236 9.1588C25.0007 9.20039 25.7273 9.49677 26.2963 9.998L26.6929 9.54779C26.0219 8.95668 25.1668 8.60853 24.2686 8.55969L24.236 9.1588ZM23.8125 8.69997C23.8125 8.72009 23.8121 8.76108 23.8167 8.80072C23.8215 8.84264 23.8344 8.9123 23.8807 8.98154C23.9837 9.13534 24.1539 9.15397 24.2346 9.15873L24.2699 8.55977C24.2488 8.55852 24.2564 8.55662 24.277 8.56432C24.3038 8.57439 24.3465 8.59881 24.3793 8.6477C24.4082 8.69085 24.4123 8.72858 24.4128 8.7324C24.4129 8.73393 24.4125 8.73065 24.4125 8.69997H23.8125ZM23.8125 7.8761V8.69997H24.4125V7.8761H23.8125ZM23.4036 6.22961C23.6726 6.7385 23.8127 7.30319 23.8125 7.87601L24.4125 7.87619C24.4127 7.20521 24.2485 6.54427 23.9341 5.94927L23.4036 6.22961ZM22.2663 4.95181C22.7447 5.28228 23.1347 5.72068 23.4036 6.22961L23.9341 5.94927C23.6197 5.35431 23.1645 4.84297 22.6072 4.45812L22.2663 4.95181ZM20.6544 4.33194C21.2349 4.40857 21.7878 4.62131 22.2663 4.95181L22.6072 4.45812C22.0501 4.07328 21.4072 3.8261 20.7329 3.7371L20.6544 4.33194ZM18.9323 4.51195C19.4832 4.31709 20.0739 4.2553 20.6544 4.33194L20.7329 3.7371C20.0587 3.64809 19.3725 3.7198 18.7322 3.9463L18.9323 4.51195ZM9.45712 7.87033C12.6154 6.7445 15.7737 5.62508 18.932 4.51207L18.7326 3.94618C15.5736 5.05943 12.4146 6.17909 9.25565 7.30516L9.45712 7.87033ZM7.25082 9.5175C7.79339 8.75805 8.56356 8.18231 9.45527 7.87098L9.2575 7.30451C8.25006 7.65624 7.37795 8.30739 6.76261 9.16871L7.25082 9.5175ZM6.42507 12.1091C6.42 11.1826 6.70832 10.2769 7.25082 9.5175L6.76261 9.16871C6.14722 10.0301 5.81932 11.0588 5.82507 12.1124L6.42507 12.1091ZM6.42507 24.3699V12.1108H5.82507V24.3699H6.42507ZM6.52248 25.1793C6.45689 24.9146 6.42419 24.6432 6.42507 24.3708L5.82507 24.3689C5.82404 24.6906 5.86267 25.0111 5.9401 25.3236L6.52248 25.1793ZM7.7149 26.9961C7.11996 26.5388 6.70032 25.8985 6.52252 25.1794L5.94006 25.3234C6.15083 26.1759 6.64773 26.9326 7.34922 27.4718L7.7149 26.9961ZM9.80228 27.6976C9.04533 27.701 8.30994 27.4536 7.7149 26.9961L7.34922 27.4718C8.05061 28.011 8.9158 28.3016 9.80497 28.2976L9.80228 27.6976ZM24.4326 27.675C24.2482 27.6966 24.0625 27.7042 23.8769 27.6978L23.8562 28.2975C24.072 28.3049 24.2881 28.296 24.5025 28.2709L24.4326 27.675ZM26.5964 26.5553C26.0436 27.1795 25.2724 27.5793 24.4336 27.6748L24.5015 28.271C25.486 28.1589 26.3935 27.6894 27.0455 26.9531L26.5964 26.5553ZM27.4241 24.3029C27.4437 25.1279 27.149 25.9313 26.5964 26.5553L27.0455 26.9531C27.6977 26.2166 28.0472 25.2664 28.0239 24.2886L27.4241 24.3029ZM26.9059 24.3204V12.5529H26.3059V24.3204H26.9059ZM26.7062 25.435C26.8499 25.0778 26.9179 24.6952 26.9057 24.311L26.306 24.3299C26.3155 24.6309 26.2623 24.9307 26.1495 25.211L26.7062 25.435ZM26.0707 26.3879C26.3461 26.1164 26.5625 25.7922 26.7062 25.435L26.1495 25.211C26.0367 25.4914 25.8667 25.7465 25.6495 25.9606L26.0707 26.3879ZM25.1049 27.0141C25.4666 26.8723 25.7952 26.6593 26.0707 26.3879L25.6495 25.9606C25.4323 26.1746 25.1725 26.3431 24.886 26.4554L25.1049 27.0141ZM23.9674 27.2128C24.3563 27.2234 24.7433 27.1558 25.1049 27.0141L24.886 26.4554C24.5995 26.5678 24.2924 26.6214 23.9837 26.613L23.9674 27.2128ZM9.84835 27.2129H23.9756V26.6129H9.84835V27.2129ZM8.72627 27.0132C9.08521 27.1547 9.46963 27.2226 9.85597 27.2128L9.84073 26.613C9.53463 26.6207 9.23025 26.567 8.94635 26.455L8.72627 27.0132ZM7.76821 26.3891C8.04125 26.6594 8.36732 26.8717 8.72627 27.0132L8.94635 26.455C8.66246 26.3431 8.40523 26.1755 8.1903 25.9627L7.76821 26.3891ZM7.13897 25.4411C7.28094 25.7963 7.49517 26.1189 7.76821 26.3891L8.1903 25.9627C7.97539 25.75 7.80732 25.4967 7.69612 25.2184L7.13897 25.4411ZM6.94334 24.324C6.93038 24.7057 6.997 25.0859 7.13897 25.4411L7.69612 25.2184C7.58493 24.9402 7.53287 24.6428 7.543 24.3444L6.94334 24.324ZM6.94317 12.5584V24.3342H7.54317V12.5584H6.94317ZM7.58973 10.6753C7.14541 11.2071 6.91494 11.8817 6.94343 12.5708L7.54292 12.546C7.52064 12.0071 7.70072 11.4782 8.05015 11.06L7.58973 10.6753ZM9.34985 9.68594C8.66057 9.79211 8.03391 10.1437 7.58973 10.6753L8.05015 11.06C8.39971 10.6417 8.89457 10.3631 9.44118 10.279L9.34985 9.68594ZM9.84452 9.6538C9.68149 9.65354 9.51859 9.66395 9.35688 9.68495L9.43415 10.2799C9.56992 10.2623 9.7067 10.2536 9.8436 10.2538L9.84452 9.6538ZM9.95129 9.65508C9.91529 9.65414 9.8793 9.65371 9.84331 9.6538L9.84482 10.2538C9.87504 10.2537 9.90526 10.2541 9.93549 10.2549L9.95129 9.65508ZM24.0485 9.65485C24.0364 9.65482 24.0243 9.65487 24.0122 9.655L24.0184 10.255C24.028 10.2549 24.0376 10.2548 24.0472 10.2548L24.0485 9.65485ZM25.8362 10.2719C25.3286 9.87015 24.6968 9.65278 24.0469 9.65485L24.0488 10.2548C24.564 10.2532 25.0636 10.4256 25.4639 10.7424L25.8362 10.2719ZM26.838 11.8842C26.7041 11.2479 26.3495 10.6781 25.8362 10.2719L25.4639 10.7424C25.8685 11.0626 26.1462 11.5101 26.2508 12.0077L26.838 11.8842ZM26.9059 12.5578C26.9096 12.3304 26.8866 12.1033 26.8373 11.881L26.2515 12.0109C26.2906 12.1873 26.3089 12.3675 26.3059 12.548L26.9059 12.5578ZM22.8817 8.56022C22.8145 8.55478 22.7468 8.55477 22.6795 8.56022L22.7279 9.15826C22.7629 9.15543 22.7982 9.15543 22.8333 9.15827L22.8817 8.56022ZM22.7037 8.55924H9.9378V9.15924H22.7037V8.55924ZM9.94645 8.55936C9.6782 8.55163 9.40974 8.56428 9.14346 8.59721L9.2171 9.19267C9.45321 9.16347 9.69127 9.15225 9.92915 9.15911L9.94645 8.55936ZM9.35561 9.13838C9.4059 9.10216 9.4583 9.06897 9.51252 9.03898L9.2221 8.51395C9.14714 8.55542 9.07462 8.60133 9.00496 8.6515L9.35561 9.13838ZM9.67316 8.32185C9.51453 8.36916 9.36214 8.43425 9.21896 8.51572L9.51566 9.03722C9.61922 8.9783 9.72958 8.93114 9.84464 8.89683L9.67316 8.32185ZM19.0673 4.98174C15.9273 6.09673 12.7909 7.21172 9.6583 8.32671L9.8595 8.89197C12.992 7.77703 16.1282 6.66209 19.2681 5.54715L19.0673 4.98174ZM20.5561 4.8068C20.0512 4.7452 19.5386 4.80577 19.0628 4.98339L19.2726 5.5455C19.6582 5.40159 20.0739 5.35241 20.4834 5.40238L20.5561 4.8068ZM21.9608 5.33726C21.5432 5.05038 21.061 4.8684 20.5561 4.8068L20.4834 5.40238C20.893 5.45236 21.2835 5.59991 21.621 5.8318L21.9608 5.33726ZM22.952 6.45399C22.7188 6.00741 22.3784 5.62417 21.9608 5.33726L21.621 5.8318C21.9586 6.06367 22.2327 6.37272 22.4201 6.73165L22.952 6.45399ZM23.2972 7.89922C23.3037 7.39677 23.1851 6.9006 22.952 6.45399L22.4201 6.73165C22.6074 7.09055 22.7025 7.48868 22.6973 7.89142L23.2972 7.89922ZM23.2972 8.71919V7.89532H22.6972V8.71919H23.2972ZM23.2529 8.94157C23.2963 8.85359 23.2985 8.76461 23.2971 8.71137L22.6973 8.72701C22.6976 8.73587 22.6969 8.73495 22.698 8.72778C22.699 8.72047 22.7026 8.70083 22.7149 8.67593L23.2529 8.94157ZM22.7081 8.6908C22.7162 8.67177 22.7302 8.64758 22.7532 8.62428C22.7767 8.60058 22.803 8.58429 22.8279 8.5742C22.8724 8.5562 22.9013 8.56214 22.8875 8.56075L22.8275 9.15774C22.8844 9.16347 22.9677 9.16493 23.0532 9.13029C23.1532 9.08977 23.2224 9.01403 23.2597 8.9267L22.7081 8.6908ZM23.8666 27.6976H9.80362V28.2976H23.8666V27.6976ZM24.0153 9.65498H9.94339V10.255H24.0153V9.65498Z" fill="currentColor" mask="url(#path-1-outside-1_3013_2655)"/>
</svg>
