<svg t="1650939641218" class="icon" viewBox="0 0 1024 1024" version="1.1" xmlns="http://www.w3.org/2000/svg" p-id="2803" width="128" height="128"><path d="M837.818182 915.549091h-131.956364c-12.8 0-23.272727-10.472727-23.272727-23.272727v-58.181819c0-4.189091-8.843636-11.636364-23.272727-11.636363s-23.272727 7.447273-23.272728 11.636363v58.181819c0 12.8-10.472727 23.272727-23.272727 23.272727H465.454545c-12.8 0-23.272727-10.472727-23.272727-23.272727s10.472727-23.272727 23.272727-23.272728h124.043637v-34.909091c0-32.581818 30.72-58.181818 69.818182-58.181818s69.818182 25.6 69.818181 58.181818v34.909091H814.545455v-232.727272H209.454545v232.727272h93.789091c12.8 0 23.272727 10.472727 23.272728 23.272728s-10.472727 23.272727-23.272728 23.272727H186.181818c-12.8 0-23.272727-10.472727-23.272727-23.272727v-279.272728c0-12.8 10.472727-23.272727 23.272727-23.272727h651.636364c12.8 0 23.272727 10.472727 23.272727 23.272727v279.272728c0 12.8-10.472727 23.272727-23.272727 23.272727z" fill="#040000" p-id="2804"></path><path d="M837.818182 636.276364H186.181818c-12.8 0-23.272727-10.472727-23.272727-23.272728v-69.818181c0-11.403636 8.145455-20.945455 19.316364-22.807273l244.596363-43.054546V124.276364c0-26.065455 23.970909-46.545455 54.225455-46.545455h62.138182c30.487273 0 54.225455 20.48 54.225454 46.545455V477.090909l244.596364 43.054546c11.170909 1.861818 19.316364 11.636364 19.316363 22.807272v69.818182A23.738182 23.738182 0 0 1 837.818182 636.276364z m-628.363637-46.545455h605.09091v-26.996364l-244.596364-43.054545a23.202909 23.202909 0 0 1-19.316364-22.807273V126.138182a13.172364 13.172364 0 0 0-7.68-2.094546h-62.138182c-3.723636 0-6.516364 1.163636-7.68 2.094546v370.269091c0 11.403636-8.145455 20.945455-19.316363 22.807272L209.454545 562.734545v26.996364z" fill="currentColor" p-id="2805"></path></svg>