<svg width="14" height="16" viewBox="0 0 14 16" fill="none" xmlns="http://www.w3.org/2000/svg">
<path d="M1.41543 16C1.01689 16 0.681347 15.8604 0.408808 15.5813C0.136269 15.3029 0 14.9601 0 14.5529V3.25424H1.14997V14.5529C1.14997 14.6289 1.17581 14.6929 1.22749 14.7449C1.27916 14.7977 1.34181 14.8241 1.41543 14.8241H10.3529V16H1.41543ZM4.15817 13.197C3.76033 13.197 3.42479 13.0578 3.15154 12.7794C2.879 12.5002 2.74273 12.1575 2.74273 11.7511V1.46875C2.74273 1.0616 2.879 0.715209 3.15154 0.429559C3.42479 0.143186 3.76033 0 4.15817 0H12.1007C12.4986 0 12.8376 0.143186 13.118 0.429559C13.3983 0.715209 13.5385 1.0616 13.5385 1.46875V11.7511C13.5385 12.1575 13.3983 12.5002 13.118 12.7794C12.8376 13.0578 12.4986 13.197 12.1007 13.197H4.15817ZM4.15817 12.0222H12.1007C12.1743 12.0222 12.2405 11.9958 12.2993 11.9431C12.358 11.8903 12.3874 11.8263 12.3874 11.7511V1.46875C12.3874 1.39354 12.358 1.32556 12.2993 1.26481C12.2405 1.20479 12.1743 1.17478 12.1007 1.17478H4.15817C4.08455 1.17478 4.0219 1.20479 3.97022 1.26481C3.91854 1.32556 3.89271 1.39354 3.89271 1.46875V11.7511C3.89271 11.8263 3.91854 11.8903 3.97022 11.9431C4.0219 11.9958 4.08455 12.0222 4.15817 12.0222Z" fill="currentColor"/>
</svg>
