<?xml version="1.0" standalone="no"?><!DOCTYPE svg PUBLIC "-//W3C//DTD SVG 1.1//EN" "http://www.w3.org/Graphics/SVG/1.1/DTD/svg11.dtd"><svg t="1639834488805" class="icon" viewBox="0 0 1024 1024" version="1.1" xmlns="http://www.w3.org/2000/svg" p-id="6503" xmlns:xlink="http://www.w3.org/1999/xlink" width="64" height="64"><defs><style type="text/css"></style></defs><path d="M127.785336 1024H895.564005C981.195113 1024 1023.989333 996.522953 1023.989333 941.526192c0-36.692951-11.903876-75.391215-35.668961-116.137456-23.38109-41.172904-57.25807-79.871168-101.630942-116.180124-44.372871-36.266289-98.046979-65.62065-161.022322-88.063082-63.01801-22.826429-134.142603-34.21831-213.373778-34.21831-79.657837 0-150.953094 11.391881-213.971104 34.21831-62.975344 22.442433-116.649452 51.796794-161.022323 88.063082-44.372871 36.266289-78.463183 75.007219-102.228268 116.180124C11.690545 866.134978 0 904.875908 0 941.526192 0 996.522953 42.58089 1024 127.785336 1024z m-17.834481-65.108655c-13.866522 0-23.594421-1.834648-29.14103-5.589275-5.119947-3.370632-7.67992-9.727899-7.67992-19.071802 0-26.19706 9.685232-55.551421 29.098363-88.105748 19.413131-32.511661 47.743503-63.402006 84.991115-92.585703 37.631608-29.525026 83.625796-53.844772 137.854564-72.95924 54.698097-19.029135 117.076114-28.586369 187.219383-28.586369 69.716607 0 131.753294 9.557234 186.024729 28.586369 54.655431 19.114468 100.606952 43.434214 137.854564 72.95924 37.674274 29.183696 66.175311 60.031375 85.588442 92.585703 19.413131 32.554328 29.14103 61.908688 29.14103 88.105748 0 9.386569-2.773304 15.70117-8.319914 19.071802-5.162613 3.754628-14.506516 5.589275-27.946375 5.589275H109.950855z m402.939802-448.293997a234.365559 234.365559 0 0 0 125.396028-34.772971 260.178623 260.178623 0 0 0 90.324392-93.695024c22.613098-38.911595 33.87698-82.345809 33.87698-130.174644 0-46.76218-11.263883-89.044406-33.87698-126.804013A249.512068 249.512068 0 0 0 638.286685 34.271643C600.655077 11.359882 558.842179 0.010667 512.847991 0.010667a237.352194 237.352194 0 0 0-125.950688 34.772971A260.349288 260.349288 0 0 0 296.530244 126.302684c-22.613098 38.143603-33.706316 80.212498-33.279653 126.249352 0 47.487505 11.093218 90.879053 33.279653 130.131978a262.141269 262.141269 0 0 0 90.324393 93.183029c37.631608 23.167759 79.615171 34.772971 125.993354 34.772971z m0-65.663316a164.947615 164.947615 0 0 1-89.172404-25.215737 189.608692 189.608692 0 0 1-63.572671-69.033948c-15.829168-29.183696-23.765086-61.866022-23.765086-98.174977 0-34.431641 7.935917-65.663316 23.765086-93.695024a186.23806 186.23806 0 0 1 63.572671-67.924626 164.904949 164.904949 0 0 1 89.172404-25.215737 164.691618 164.691618 0 0 1 88.532412 24.661076 181.758107 181.758107 0 0 1 63.572671 67.327299c15.871835 28.074374 23.807752 59.476714 23.807752 94.292351 0 35.882293-7.935917 68.43662-23.765086 97.620316a181.971438 181.971438 0 0 1-63.572671 69.545942 159.35834 159.35834 0 0 1-88.575078 25.813065z" p-id="6504" fill="currentColor"></path></svg>