<svg width="24" height="24" viewBox="0 0 24 24" fill="none" xmlns="http://www.w3.org/2000/svg">
<path d="M13.7407 23H10.3972C10.1578 23 9.94592 22.9171 9.76171 22.7513C9.5775 22.5855 9.46697 22.3737 9.43013 22.1158L9.09855 19.6289C8.80382 19.5368 8.50466 19.3987 8.20108 19.2145C7.89676 19.0303 7.61566 18.8368 7.35776 18.6342L5.06434 19.6289C4.82487 19.7211 4.59018 19.7303 4.36029 19.6566C4.12966 19.5829 3.94066 19.4355 3.79329 19.2145L2.13539 16.3132C2.00645 16.0921 1.96961 15.8571 2.02487 15.608C2.08013 15.3597 2.19987 15.1618 2.38408 15.0145L4.40118 13.4947C4.36434 13.3289 4.3415 13.1632 4.33266 12.9974C4.32308 12.8316 4.31829 12.6658 4.31829 12.5C4.31829 12.3526 4.32308 12.1961 4.33266 12.0303C4.3415 11.8645 4.36434 11.6895 4.40118 11.5053L2.38408 9.98553C2.19987 9.83816 2.08013 9.64032 2.02487 9.392C1.96961 9.14295 2.00645 8.90789 2.13539 8.68684L3.79329 5.81316C3.92224 5.5921 4.10645 5.44474 4.34592 5.37105C4.58539 5.29737 4.81566 5.30658 5.03671 5.39868L7.35776 6.36579C7.61566 6.16316 7.89676 5.97453 8.20108 5.79989C8.50466 5.62453 8.80382 5.48158 9.09855 5.37105L9.43013 2.88421C9.46697 2.62632 9.5775 2.41447 9.76171 2.24868C9.94592 2.08289 10.1578 2 10.3972 2H13.7407C13.9986 2 14.2196 2.08289 14.4038 2.24868C14.588 2.41447 14.6986 2.62632 14.7354 2.88421L15.067 5.37105C15.3986 5.5 15.6977 5.64258 15.9644 5.79879C16.2319 5.95574 16.5038 6.14474 16.7801 6.36579L19.1288 5.39868C19.3499 5.30658 19.5757 5.29737 19.8063 5.37105C20.0362 5.44474 20.2249 5.5921 20.3722 5.81316L22.0301 8.68684C22.1591 8.90789 22.1959 9.14295 22.1407 9.392C22.0854 9.64032 21.9657 9.83816 21.7814 9.98553L19.7367 11.5329C19.7736 11.7171 19.792 11.8829 19.792 12.0303V12.5C19.792 12.6474 19.7872 12.7992 19.7776 12.9554C19.7688 13.1123 19.7459 13.2921 19.7091 13.4947L21.7262 15.0145C21.9288 15.1618 22.0578 15.3597 22.113 15.608C22.1683 15.8571 22.1222 16.0921 21.9749 16.3132L20.317 19.1868C20.188 19.4079 20.0038 19.5553 19.7643 19.6289C19.5249 19.7026 19.2854 19.6934 19.0459 19.6013L16.7801 18.6342C16.5038 18.8553 16.2231 19.0487 15.9379 19.2145C15.652 19.3803 15.3617 19.5184 15.067 19.6289L14.7354 22.1158C14.6986 22.3737 14.588 22.5855 14.4038 22.7513C14.2196 22.9171 13.9986 23 13.7407 23ZM12.0828 15.8158C13.0038 15.8158 13.7867 15.4934 14.4314 14.8487C15.0762 14.2039 15.3986 13.4211 15.3986 12.5C15.3986 11.5789 15.0762 10.7961 14.4314 10.1513C13.7867 9.50658 13.0038 9.18421 12.0828 9.18421C11.1617 9.18421 10.3788 9.50658 9.73408 10.1513C9.08934 10.7961 8.76697 11.5789 8.76697 12.5C8.76697 13.4211 9.08934 14.2039 9.73408 14.8487C10.3788 15.4934 11.1617 15.8158 12.0828 15.8158ZM12.0828 14.1579C11.6222 14.1579 11.231 13.9965 10.909 13.6738C10.5862 13.3518 10.4249 12.9605 10.4249 12.5C10.4249 12.0395 10.5862 11.6482 10.909 11.3262C11.231 11.0035 11.6222 10.8421 12.0828 10.8421C12.5433 10.8421 12.9346 11.0035 13.2566 11.3262C13.5793 11.6482 13.7407 12.0395 13.7407 12.5C13.7407 12.9605 13.5793 13.3518 13.2566 13.6738C12.9346 13.9965 12.5433 14.1579 12.0828 14.1579ZM10.9775 21.3421H13.1604L13.5472 18.3855C14.1183 18.2382 14.6341 18.0263 15.0946 17.75C15.5551 17.4737 16.0064 17.1237 16.4486 16.7L19.1841 17.8605L20.2893 15.9816L17.8854 14.1855C17.9775 13.8908 18.0376 13.6053 18.0656 13.3289C18.0928 13.0526 18.1064 12.7763 18.1064 12.5C18.1064 12.2053 18.0928 11.9245 18.0656 11.6578C18.0376 11.3903 17.9775 11.1184 17.8854 10.8421L20.2893 9.01842L19.2117 7.13947L16.4209 8.3C16.0525 7.91316 15.6104 7.56758 15.0946 7.26326C14.5788 6.95968 14.063 6.74342 13.5472 6.61447L13.188 3.65789H11.0051L10.6183 6.61447C10.0657 6.74342 9.54987 6.94605 9.07092 7.22237C8.59197 7.49868 8.13145 7.84868 7.68934 8.27237L4.95382 7.13947L3.87618 9.01842L6.2525 10.7868C6.16039 11.0632 6.09592 11.3395 6.05908 11.6158C6.02224 11.8921 6.00382 12.1868 6.00382 12.5C6.00382 12.7947 6.02224 13.0803 6.05908 13.3566C6.09592 13.6329 6.16039 13.9092 6.2525 14.1855L3.87618 15.9816L4.95382 17.8605L7.68934 16.7C8.11303 17.1237 8.56434 17.4737 9.04329 17.75C9.52224 18.0263 10.0472 18.2382 10.6183 18.3855L10.9775 21.3421Z" fill="currentColor"/>
</svg>
