<svg width="24" height="24" viewBox="0 0 24 24" fill="none" xmlns="http://www.w3.org/2000/svg">
<path d="M2 9.96277C2 12.696 3.74147 14.4628 6.29613 14.4628C7.6847 14.4628 8.83544 13.8814 10.1013 12.6809L12.0038 10.8839L13.8987 12.6809C15.1722 13.8814 16.323 14.4628 17.7039 14.4628C20.2585 14.4628 22 12.696 22 9.96277C22 7.22955 20.2585 5.46277 17.7039 5.46277C16.323 5.46277 15.1722 6.04414 13.8987 7.24465L12.0038 9.04163L10.1013 7.24465C8.83544 6.04414 7.6847 5.46277 6.29613 5.46277C3.74147 5.46277 2 7.22955 2 9.96277ZM3.38857 9.96277C3.38857 8.05253 4.57768 6.82938 6.29613 6.82938C7.2781 6.82938 8.13732 7.2975 9.12697 8.21109L11.0295 9.96277L9.11929 11.7144C8.12965 12.6205 7.2781 13.0962 6.29613 13.0962C4.57768 13.0962 3.38857 11.873 3.38857 9.96277ZM12.9705 9.96277L14.873 8.21109C15.8627 7.2975 16.7219 6.82938 17.7039 6.82938C19.43 6.82938 20.6114 8.05253 20.6114 9.96277C20.6114 11.873 19.43 13.0962 17.7039 13.0962C16.7219 13.0962 15.8703 12.6205 14.8807 11.7144L12.9705 9.96277Z" fill="currentColor"/>
</svg>