<svg width="28" height="13" viewBox="0 0 28 13" fill="none" xmlns="http://www.w3.org/2000/svg">
<path d="M0.666626 6.5914C0.666626 7.78554 0.903333 8.82776 1.37675 9.71806C1.85723 10.6084 2.51789 11.2973 3.35873 11.7848C4.20664 12.2724 5.18173 12.5162 6.28401 12.5162C7.23084 12.5162 8.10348 12.3112 8.90192 11.9014C9.70037 11.4845 10.5306 10.8663 11.3926 10.0466L14 7.5559L16.6073 10.0466C17.4693 10.8663 18.2996 11.4845 19.098 11.9014C19.9035 12.3112 20.7761 12.5162 21.7159 12.5162C22.8111 12.5162 23.7827 12.2724 24.6306 11.7848C25.4785 11.2973 26.1392 10.6084 26.6126 9.71806C27.0931 8.82776 27.3333 7.78554 27.3333 6.5914C27.3333 5.39727 27.0931 4.35505 26.6126 3.46475C26.1392 2.57445 25.4785 1.88552 24.6306 1.39798C23.7827 0.91043 22.8111 0.666656 21.7159 0.666656C20.7761 0.666656 19.9035 0.8751 19.098 1.29199C18.2996 1.70181 17.4693 2.31654 16.6073 3.13618L14 5.62691L11.3926 3.13618C10.5306 2.31654 9.70037 1.70181 8.90192 1.29199C8.10348 0.8751 7.23084 0.666656 6.28401 0.666656C5.18173 0.666656 4.20664 0.91043 3.35873 1.39798C2.51789 1.88552 1.85723 2.57445 1.37675 3.46475C0.903333 4.35505 0.666626 5.39727 0.666626 6.5914ZM2.10807 6.5914C2.10807 5.6799 2.28471 4.88853 2.63801 4.21727C2.99837 3.54601 3.49298 3.02666 4.12185 2.65924C4.75778 2.28475 5.4785 2.0975 6.28401 2.0975C7.00473 2.0975 7.68659 2.27415 8.32958 2.62744C8.97258 2.98074 9.6509 3.48948 10.3646 4.15367L12.9931 6.5914L10.354 9.02914C9.64031 9.69333 8.96198 10.2021 8.31898 10.5554C7.68305 10.9016 7.00473 11.0747 6.28401 11.0747C5.4785 11.0747 4.75778 10.891 4.12185 10.5236C3.49298 10.1561 2.99837 9.6368 2.63801 8.96554C2.28471 8.28722 2.10807 7.49584 2.10807 6.5914ZM15.0068 6.5914L17.6248 4.15367C18.3455 3.48948 19.0238 2.98074 19.6597 2.62744C20.3027 2.27415 20.9881 2.0975 21.7159 2.0975C22.5214 2.0975 23.2386 2.28475 23.8675 2.65924C24.4963 3.02666 24.9874 3.54601 25.3407 4.21727C25.7011 4.88853 25.8813 5.6799 25.8813 6.5914C25.8813 7.49584 25.7011 8.28722 25.3407 8.96554C24.9874 9.6368 24.4963 10.1561 23.8675 10.5236C23.2386 10.891 22.5214 11.0747 21.7159 11.0747C20.9952 11.0747 20.3133 10.9016 19.6703 10.5554C19.0344 10.2021 18.3561 9.69333 17.6354 9.02914L15.0068 6.5914Z" fill="currentColor"/>
</svg>
