<svg width="24" height="24" viewBox="0 0 24 24" fill="none" xmlns="http://www.w3.org/2000/svg">
<mask id="mask0_3584_161" style="mask-type:alpha" maskUnits="userSpaceOnUse" x="0" y="0" width="24" height="24">
<rect width="24" height="24" fill="#D9D9D9"/>
</mask>
<g mask="url(#mask0_3584_161)">
<path d="M16.3895 17.7158L17.7158 16.3895L12.9474 11.6211V5.68421H11.0526V12.3789L16.3895 17.7158ZM12 24C10.3368 24 8.77389 23.6842 7.31116 23.0526C5.84758 22.4211 4.57895 21.5684 3.50526 20.4947C2.43158 19.4211 1.57895 18.1524 0.947368 16.6888C0.315789 15.2261 0 13.6632 0 12C0 10.3368 0.315789 8.77347 0.947368 7.30989C1.57895 5.84716 2.43158 4.57895 3.50526 3.50526C4.57895 2.43158 5.84758 1.57895 7.31116 0.947368C8.77389 0.315789 10.3368 0 12 0C13.6632 0 15.2265 0.315789 16.6901 0.947368C18.1528 1.57895 19.4211 2.43158 20.4947 3.50526C21.5684 4.57895 22.4211 5.84716 23.0526 7.30989C23.6842 8.77347 24 10.3368 24 12C24 13.6632 23.6842 15.2261 23.0526 16.6888C22.4211 18.1524 21.5684 19.4211 20.4947 20.4947C19.4211 21.5684 18.1528 22.4211 16.6901 23.0526C15.2265 23.6842 13.6632 24 12 24ZM12 22.1053C14.8 22.1053 17.1844 21.1213 19.1533 19.1533C21.1213 17.1844 22.1053 14.8 22.1053 12C22.1053 9.2 21.1213 6.81558 19.1533 4.84674C17.1844 2.87874 14.8 1.89474 12 1.89474C9.2 1.89474 6.816 2.87874 4.848 4.84674C2.87916 6.81558 1.89474 9.2 1.89474 12C1.89474 14.8 2.87916 17.1844 4.848 19.1533C6.816 21.1213 9.2 22.1053 12 22.1053Z" fill="#1C1B1F"/>
</g>
</svg>
