<svg t="1664034234714" class="icon" viewBox="0 0 1024 1024" version="1.1" xmlns="http://www.w3.org/2000/svg" p-id="1827" width="128" height="128"><path d="M389.06 896c-2.45 0-4.92-0.28-7.35-0.86-44.47-10.49-86.77-28.03-125.75-52.13a32 32 0 0 1-9.5-45.4c16.56-23.99 13.59-56.38-7.05-77.03-20.65-20.64-53.04-23.61-77.03-7.05a32 32 0 0 1-45.4-9.5c-24.1-38.97-41.64-81.28-52.13-125.75a32.005 32.005 0 0 1 4.36-24.86c4.8-7.34 12.4-12.39 21.03-13.96 28.69-5.24 49.51-30.25 49.51-59.46s-20.82-54.22-49.51-59.46a32 32 0 0 1-21.03-13.96 31.97 31.97 0 0 1-4.36-24.86c10.49-44.47 28.03-86.78 52.13-125.75a32 32 0 0 1 45.4-9.5c23.99 16.56 56.38 13.59 77.03-7.05 20.65-20.65 23.61-53.04 7.05-77.03a32.034 32.034 0 0 1-4.99-24.74c1.8-8.58 7.04-16.05 14.49-20.66 38.97-24.1 81.28-41.64 125.75-52.13a31.97 31.97 0 0 1 24.86 4.36c7.34 4.8 12.39 12.4 13.96 21.03 5.24 28.69 30.25 49.51 59.46 49.51s54.22-20.82 59.46-49.51a32 32 0 0 1 13.96-21.03 31.97 31.97 0 0 1 24.86-4.36c44.47 10.49 86.77 28.03 125.75 52.13a32 32 0 0 1 9.5 45.4c-16.56 23.99-13.59 56.38 7.05 77.03 20.65 20.65 53.04 23.61 77.03 7.05a32 32 0 0 1 45.4 9.5c24.1 38.97 41.64 81.28 52.13 125.75 2.01 8.54 0.44 17.52-4.36 24.86a31.965 31.965 0 0 1-21.03 13.96c-28.69 5.24-49.51 30.25-49.51 59.46 0 17.67-14.33 32-32 32s-32-14.33-32-32c0-48.17 27.53-90.79 68.87-111.39a358.363 358.363 0 0 0-22.34-53.86c-43.79 14.64-93.38 3.97-127.44-30.08-34.05-34.05-44.73-83.64-30.08-127.43a359.408 359.408 0 0 0-53.86-22.34c-20.6 41.34-63.22 68.87-111.39 68.87S389.2 176.24 368.6 134.9a359.408 359.408 0 0 0-53.86 22.34c14.65 43.79 3.97 93.38-30.08 127.44-24.09 24.09-55.97 36.48-88.06 36.48-13.27 0-26.57-2.12-39.38-6.4a359.408 359.408 0 0 0-22.34 53.86c41.34 20.6 68.87 63.22 68.87 111.39s-27.53 90.79-68.87 111.39a358.363 358.363 0 0 0 22.34 53.86c43.79-14.64 93.38-3.97 127.44 30.08 34.05 34.05 44.73 83.65 30.08 127.44 17.34 8.9 35.34 16.37 53.86 22.34 20.6-41.34 63.22-68.87 111.39-68.87 17.67 0 32 14.33 32 32s-14.33 32-32 32c-29.21 0-54.22 20.82-59.46 49.51a32 32 0 0 1-13.96 21.03 32.062 32.062 0 0 1-17.51 5.21z" p-id="1828"></path><path d="M480 719.19c-63.89 0-123.96-24.88-169.13-70.06-45.18-45.18-70.06-105.24-70.06-169.13s24.88-123.96 70.06-169.13c45.18-45.18 105.24-70.06 169.13-70.06s123.96 24.88 169.13 70.06c45.18 45.18 70.06 105.24 70.06 169.13 0 17.67-14.33 32-32 32s-32-14.33-32-32c0-96.6-78.59-175.19-175.19-175.19S304.81 383.4 304.81 480 383.4 655.19 480 655.19c17.67 0 32 14.33 32 32s-14.33 32-32 32z" p-id="1829"></path><path d="M480 575.13c-52.45 0-95.13-42.67-95.13-95.13s42.67-95.13 95.13-95.13 95.13 42.67 95.13 95.13-42.68 95.13-95.13 95.13z m0-126.26c-17.16 0-31.13 13.96-31.13 31.13s13.96 31.13 31.13 31.13 31.13-13.96 31.13-31.13-13.97-31.13-31.13-31.13z" p-id="1830"></path><path d="M448 536.65h64v150.5h-64zM513.049 423.951l130.324-75.245 32 55.424-130.324 75.245zM284.594 404.147l32-55.424 130.324 75.245-32 55.424zM786.47 960a27.05 27.05 0 0 1-14.78-4.4 26.998 26.998 0 0 1-11.78-17.74c-1.67-9.11-9.62-15.73-18.91-15.73s-17.24 6.62-18.91 15.73a26.998 26.998 0 0 1-32.76 21.42 222.6 222.6 0 0 1-66.13-27.42 27.02 27.02 0 0 1-12.23-17.43c-1.51-7.24 0.01-14.79 4.21-20.87 5.26-7.62 4.32-17.92-2.25-24.49-6.57-6.57-16.87-7.51-24.49-2.25a27.032 27.032 0 0 1-20.87 4.21 27.02 27.02 0 0 1-17.43-12.23c-12.67-20.5-21.9-42.75-27.42-66.13a26.998 26.998 0 0 1 21.42-32.76c9.11-1.67 15.73-9.62 15.73-18.91s-6.62-17.24-15.73-18.91a26.998 26.998 0 0 1-21.42-32.76 222.6 222.6 0 0 1 27.42-66.13 27.02 27.02 0 0 1 17.43-12.23 26.99 26.99 0 0 1 20.87 4.21c7.62 5.26 17.92 4.31 24.49-2.25 6.57-6.57 7.51-16.86 2.25-24.49a27.032 27.032 0 0 1-4.21-20.87 27.02 27.02 0 0 1 12.23-17.43c20.5-12.67 42.75-21.9 66.13-27.42a26.992 26.992 0 0 1 32.76 21.42c1.67 9.11 9.62 15.73 18.91 15.73s17.24-6.62 18.91-15.73a26.998 26.998 0 0 1 32.76-21.42 222.6 222.6 0 0 1 66.13 27.42 27.02 27.02 0 0 1 12.23 17.43c1.51 7.24-0.01 14.79-4.21 20.87-5.26 7.62-4.32 17.92 2.25 24.49 6.57 6.57 16.87 7.52 24.49 2.25a26.99 26.99 0 0 1 38.3 8.02c12.67 20.5 21.9 42.75 27.42 66.13a26.998 26.998 0 0 1-21.42 32.76c-9.11 1.67-15.73 9.62-15.73 18.91s6.62 17.24 15.73 18.91a26.998 26.998 0 0 1 21.42 32.76 222.6 222.6 0 0 1-27.42 66.13 27.02 27.02 0 0 1-17.43 12.23 27.024 27.024 0 0 1-20.87-4.21c-7.62-5.26-17.92-4.32-24.49 2.25s-7.51 16.87-2.25 24.49c4.2 6.09 5.72 13.63 4.21 20.87a27.02 27.02 0 0 1-12.23 17.43c-20.5 12.67-42.75 21.9-66.13 27.42-2.05 0.48-4.13 0.72-6.2 0.72zM741 868.12c24.91 0 47.3 12.51 60.59 32.06 3.08-1.17 6.12-2.44 9.13-3.79-4.42-23.22 2.56-47.89 20.17-65.51 17.61-17.61 42.29-24.59 65.5-20.17 1.35-3.01 2.61-6.05 3.79-9.13-19.54-13.29-32.06-35.68-32.06-60.59s12.51-47.3 32.06-60.59a168.74 168.74 0 0 0-3.79-9.13c-23.22 4.42-47.89-2.56-65.5-20.17s-24.6-42.29-20.17-65.5c-3.01-1.35-6.05-2.61-9.13-3.79-13.29 19.54-35.68 32.06-60.59 32.06s-47.3-12.51-60.59-32.06a168.74 168.74 0 0 0-9.13 3.79c4.42 23.22-2.56 47.89-20.17 65.5-17.61 17.61-42.29 24.59-65.5 20.17a168.74 168.74 0 0 0-3.79 9.13c19.54 13.29 32.06 35.68 32.06 60.59s-12.51 47.3-32.06 60.59c1.17 3.08 2.44 6.12 3.79 9.13 23.21-4.42 47.89 2.56 65.5 20.17 17.61 17.61 24.6 42.29 20.17 65.51 3.01 1.35 6.05 2.61 9.13 3.79 13.29-19.54 35.68-32.06 60.59-32.06z" p-id="1831"></path><path d="M741 863c-67.27 0-122-54.73-122-122s54.73-122 122-122 122 54.73 122 122-54.73 122-122 122z m0-194c-39.7 0-72 32.3-72 72s32.3 72 72 72 72-32.3 72-72-32.3-72-72-72z" p-id="1832"></path><path d="M741 797.4c-31.1 0-56.4-25.3-56.4-56.4s25.3-56.4 56.4-56.4 56.4 25.3 56.4 56.4-25.3 56.4-56.4 56.4z m0-62.8c-3.53 0-6.4 2.87-6.4 6.4s2.87 6.4 6.4 6.4 6.4-2.87 6.4-6.4-2.87-6.4-6.4-6.4z" p-id="1833"></path><path d="M716 769.18h50v74.86h-50zM752.886 705.25l64.82-37.425 25 43.3-64.82 37.425zM639.251 711.15l25-43.3 64.82 37.424-25 43.3z" p-id="1834"></path></svg>