<svg width="24" height="24" viewBox="0 0 24 24" fill="none" xmlns="http://www.w3.org/2000/svg">
<path d="M6.03335 21H18.0022C18.9071 21 19.6029 20.746 20.0896 20.238C20.5832 19.7368 20.83 18.9885 20.83 17.9931V7.01567L19.5652 8.27199V17.9313C19.5652 18.5285 19.4178 18.9782 19.123 19.2803C18.8283 19.5892 18.4478 19.7437 17.9817 19.7437H6.05392C5.4781 19.7437 5.03595 19.5892 4.72747 19.2803C4.41899 18.9782 4.26475 18.5285 4.26475 17.9313V6.22274C4.26475 5.63234 4.41899 5.18267 4.72747 4.87374C5.03595 4.56481 5.4781 4.41034 6.05392 4.41034H15.7812L17.046 3.15402H6.03335C5.03252 3.15402 4.27504 3.4046 3.76091 3.90575C3.25364 4.40691 3 5.15864 3 6.16096V17.9931C3 18.9954 3.25364 19.7471 3.76091 20.2483C4.27504 20.7494 5.03252 21 6.03335 21ZM10.0538 14.1829L11.8122 13.39L21.4058 3.79248L20.213 2.61854L10.6399 12.216L9.79677 13.9255C9.76249 13.9941 9.7762 14.0628 9.8379 14.1314C9.90645 14.2001 9.97843 14.2172 10.0538 14.1829ZM22.0947 3.11283L22.7631 2.43318C22.9207 2.26155 22.9996 2.08305 22.9996 1.89769C23.0064 1.70547 22.931 1.52698 22.7734 1.36221L22.6088 1.19745C22.4649 1.05328 22.2969 0.988061 22.105 1.00179C21.913 1.01552 21.7348 1.0979 21.5703 1.24894L20.9019 1.91829L22.0947 3.11283Z" fill="currentColor"/>
</svg>
