<svg width="24" height="24" viewBox="0 0 24 24" fill="none" xmlns="http://www.w3.org/2000/svg">
<path d="M1 12C1 13.3692 1.25922 14.6587 1.77767 15.8684C2.30276 17.0715 3.02393 18.1349 3.94118 19.0588C4.85842 19.9761 5.9219 20.6939 7.13161 21.2124C8.34131 21.7375 9.62745 22 10.99 22C12.1333 22 13.22 21.8106 14.2502 21.4317C15.2805 21.0528 16.221 20.5278 17.0718 19.8564C17.9226 19.1851 18.657 18.4074 19.2752 17.5234C19.4015 17.3573 19.448 17.1844 19.4148 17.005C19.3815 16.8255 19.2885 16.6893 19.1356 16.5962C18.9761 16.5032 18.8132 16.4799 18.6471 16.5264C18.4809 16.5663 18.3413 16.666 18.2283 16.8255C17.7099 17.5965 17.0784 18.2745 16.334 18.8594C15.5962 19.4443 14.772 19.8963 13.8614 20.2154C12.9575 20.541 12.0003 20.7072 10.99 20.7139C9.78697 20.7139 8.65703 20.4879 7.6002 20.0359C6.55002 19.5906 5.62612 18.9691 4.82851 18.1715C4.03091 17.3672 3.40611 16.44 2.95414 15.3898C2.50881 14.333 2.28614 13.2031 2.28614 12C2.28614 10.7969 2.50881 9.67032 2.95414 8.62014C3.40611 7.56331 4.03091 6.63609 4.82851 5.83848C5.62612 5.04088 6.55002 4.41941 7.6002 3.97408C8.65703 3.5221 9.78697 3.29611 10.99 3.29611C12.0402 3.29611 13.0339 3.46893 13.9711 3.81456C14.9083 4.15354 15.7557 4.63543 16.5135 5.26022C17.2712 5.87836 17.9059 6.60618 18.4177 7.44367C18.9362 8.27451 19.3018 9.18179 19.5145 10.1655H17.8594C17.5736 10.1655 17.3908 10.2519 17.3111 10.4247C17.238 10.5975 17.2845 10.8003 17.4506 11.0329L19.6241 14.1336C19.7571 14.3264 19.9099 14.4261 20.0828 14.4327C20.2622 14.4327 20.4217 14.333 20.5613 14.1336L22.7348 11.0329C22.901 10.8003 22.9442 10.5975 22.8644 10.4247C22.7913 10.2519 22.6118 10.1655 22.326 10.1655H20.8205C20.6012 9.01562 20.1957 7.9455 19.6042 6.95513C19.0126 5.96477 18.2782 5.09737 17.4008 4.35294C16.5234 3.60851 15.5397 3.03024 14.4497 2.61815C13.3596 2.20605 12.2064 2 10.99 2C9.62745 2 8.34131 2.26255 7.13161 2.78764C5.9219 3.30608 4.85842 4.02725 3.94118 4.95115C3.02393 5.86839 2.30276 6.93187 1.77767 8.14157C1.25922 9.34463 1 10.6308 1 12ZM7.37089 15.9781C7.37089 16.7291 7.71984 17.1047 8.41775 17.1047H13.5523C14.2569 17.1047 14.6092 16.7291 14.6092 15.9781V11.9302C14.6092 11.2124 14.2868 10.8401 13.6421 10.8136V9.52742C13.6421 8.65005 13.3961 7.94217 12.9043 7.40379C12.4191 6.85876 11.781 6.58624 10.99 6.58624C10.1991 6.58624 9.55766 6.85876 9.0658 7.40379C8.58059 7.94217 8.33799 8.65005 8.33799 9.52742V10.8136C7.69325 10.8401 7.37089 11.2124 7.37089 11.9302V15.9781ZM9.18544 10.8036V9.45763C9.18544 8.84613 9.35161 8.35427 9.68395 7.98205C10.0163 7.60984 10.4516 7.42373 10.99 7.42373C11.5284 7.42373 11.9638 7.60984 12.2961 7.98205C12.6284 8.35427 12.7946 8.84613 12.7946 9.45763V10.8036H9.18544Z" fill="currentColor"/>
</svg>
