<svg width="18" height="18" viewBox="0 0 18 18" fill="none" xmlns="http://www.w3.org/2000/svg">
<mask id="mask0_3224_6981" style="mask-type:alpha" maskUnits="userSpaceOnUse" x="0" y="0" width="18" height="18">
<rect width="18" height="18" fill="#D9D9D9"/>
</mask>
<g mask="url(#mask0_3224_6981)">
<path d="M9 13.7368C9.2386 13.7368 9.43874 13.6526 9.60042 13.4842C9.76154 13.3158 9.8421 13.1123 9.8421 12.8737C9.8421 12.6351 9.76154 12.4316 9.60042 12.2632C9.43874 12.0947 9.2386 12.0105 9 12.0105C8.74737 12.0105 8.54049 12.0947 8.37937 12.2632C8.21768 12.4316 8.13684 12.6351 8.13684 12.8737C8.13684 13.1123 8.21768 13.3158 8.37937 13.4842C8.54049 13.6526 8.74737 13.7368 9 13.7368ZM8.38947 10.7053H9.58947C9.58947 10.2982 9.64561 9.97179 9.75789 9.72589C9.87018 9.48056 10.1368 9.14737 10.5579 8.72632C10.9368 8.3614 11.2246 8.02091 11.4211 7.70484C11.6175 7.38933 11.7158 7.02105 11.7158 6.6C11.7158 5.87018 11.4561 5.30175 10.9368 4.89474C10.4175 4.48772 9.8 4.28421 9.08421 4.28421C8.38246 4.28421 7.8 4.47368 7.33684 4.85263C6.87368 5.23158 6.54386 5.67368 6.34737 6.17895L7.4421 6.6C7.54035 6.33333 7.71242 6.06667 7.95832 5.8C8.20365 5.53333 8.57193 5.4 9.06316 5.4C9.56842 5.4 9.94035 5.5367 10.1789 5.81011C10.4175 6.08407 10.5368 6.38246 10.5368 6.70526C10.5368 6.98596 10.4526 7.24561 10.2842 7.48421C10.1158 7.72281 9.90526 7.95439 9.65263 8.17895C9.10526 8.67018 8.75804 9.06681 8.61095 9.36884C8.4633 9.67032 8.38947 10.1158 8.38947 10.7053ZM9 17C7.89123 17 6.84926 16.7895 5.87411 16.3684C4.89839 15.9474 4.05263 15.3789 3.33684 14.6632C2.62105 13.9474 2.05263 13.1016 1.63158 12.1259C1.21053 11.1507 1 10.1088 1 9C1 7.89123 1.21053 6.84898 1.63158 5.87326C2.05263 4.89811 2.62105 4.05263 3.33684 3.33684C4.05263 2.62105 4.89839 2.05263 5.87411 1.63158C6.84926 1.21053 7.89123 1 9 1C10.1088 1 11.151 1.21053 12.1267 1.63158C13.1019 2.05263 13.9474 2.62105 14.6632 3.33684C15.3789 4.05263 15.9474 4.89811 16.3684 5.87326C16.7895 6.84898 17 7.89123 17 9C17 10.1088 16.7895 11.1507 16.3684 12.1259C15.9474 13.1016 15.3789 13.9474 14.6632 14.6632C13.9474 15.3789 13.1019 15.9474 12.1267 16.3684C11.151 16.7895 10.1088 17 9 17ZM9 15.7368C10.8807 15.7368 12.4737 15.0842 13.7789 13.7789C15.0842 12.4737 15.7368 10.8807 15.7368 9C15.7368 7.1193 15.0842 5.52632 13.7789 4.22105C12.4737 2.91579 10.8807 2.26316 9 2.26316C7.1193 2.26316 5.52632 2.91579 4.22105 4.22105C2.91579 5.52632 2.26316 7.1193 2.26316 9C2.26316 10.8807 2.91579 12.4737 4.22105 13.7789C5.52632 15.0842 7.1193 15.7368 9 15.7368Z" fill="currentColor"/>
</g>
</svg>
