<svg width="24" height="24" viewBox="0 0 24 24" fill="none" xmlns="http://www.w3.org/2000/svg">
<mask id="mask0_2596_9493" style="mask-type:alpha" maskUnits="userSpaceOnUse" x="0" y="0" width="24" height="24">
<rect width="24" height="24" fill="currentColor"/>
</mask>
<g mask="url(#mask0_2596_9493)">
<path d="M1.80911 7.37343C1.57536 7.37343 1.38225 7.29251 1.22978 7.13069C1.07658 6.96886 0.999985 6.78007 0.999985 6.5643C0.999985 6.33056 1.07658 6.13745 1.22978 5.98497C1.38225 5.83178 1.57536 5.75518 1.80911 5.75518H5.26136C5.49511 5.75518 5.68822 5.83178 5.84069 5.98497C5.99389 6.13745 6.07048 6.33056 6.07048 6.5643C6.07048 6.78007 5.99389 6.96886 5.84069 7.13069C5.68822 7.29251 5.49511 7.37343 5.26136 7.37343H1.80911ZM1.80911 12.6327C1.57536 12.6327 1.38225 12.5561 1.22978 12.4029C1.07658 12.2505 0.999985 12.0573 0.999985 11.8236C0.999985 11.5899 1.07658 11.3964 1.22978 11.2432C1.38225 11.0907 1.57536 11.0145 1.80911 11.0145H5.26136C5.49511 11.0145 5.68822 11.0907 5.84069 11.2432C5.99389 11.3964 6.07048 11.5899 6.07048 11.8236C6.07048 12.0573 5.99389 12.2505 5.84069 12.4029C5.68822 12.5561 5.49511 12.6327 5.26136 12.6327H1.80911ZM19.6368 17.3526L16.0766 13.7925C15.6631 14.0981 15.2179 14.3272 14.741 14.4797C14.2649 14.6329 13.7751 14.7095 13.2717 14.7095C11.9231 14.7095 10.7771 14.2373 9.83344 13.293C8.88911 12.3493 8.41694 11.2033 8.41694 9.85473C8.41694 8.5062 8.88911 7.35976 9.83344 6.41542C10.7771 5.47181 11.9231 5 13.2717 5C14.6202 5 15.7663 5.47181 16.7099 6.41542C17.6542 7.35976 18.1264 8.5062 18.1264 9.85473C18.1264 10.3582 18.0455 10.848 17.8837 11.3241C17.7218 11.8009 17.4971 12.2461 17.2094 12.6597L20.7695 16.2198C20.9134 16.3637 20.99 16.5478 20.9993 16.7722C21.008 16.9973 20.9314 17.1908 20.7695 17.3526C20.6077 17.5144 20.4146 17.5953 20.1902 17.5953C19.9651 17.5953 19.7806 17.5144 19.6368 17.3526ZM13.2717 13.0912C14.1707 13.0912 14.9349 12.7766 15.5642 12.1472C16.1935 11.5179 16.5082 10.7538 16.5082 9.85473C16.5082 8.95571 16.1935 8.19154 15.5642 7.56222C14.9349 6.9329 14.1707 6.61824 13.2717 6.61824C12.3726 6.61824 11.6085 6.9329 10.9792 7.56222C10.3498 8.19154 10.0352 8.95571 10.0352 9.85473C10.0352 10.7538 10.3498 11.5179 10.9792 12.1472C11.6085 12.7766 12.3726 13.0912 13.2717 13.0912ZM1.80911 17.892C1.57536 17.892 1.38225 17.8158 1.22978 17.6633C1.07658 17.5101 0.999985 17.3166 0.999985 17.0829C0.999985 16.8671 1.07658 16.6783 1.22978 16.5165C1.38225 16.3547 1.57536 16.2738 1.80911 16.2738H10.6555C10.8893 16.2738 11.0824 16.3547 11.2348 16.5165C11.388 16.6783 11.4646 16.8671 11.4646 17.0829C11.4646 17.3166 11.388 17.5101 11.2348 17.6633C11.0824 17.8158 10.8893 17.892 10.6555 17.892H1.80911Z" fill="currentColor"/>
</g>
</svg>
