<svg width="17" height="20" viewBox="0 0 17 20" fill="none" xmlns="http://www.w3.org/2000/svg">
<path fill-rule="evenodd" clip-rule="evenodd" d="M4.57883 9.15767C7.10766 9.15767 9.15767 7.10765 9.15767 4.57883C9.15767 2.05001 7.10766 0 4.57883 0C2.05001 0 0 2.05001 0 4.57883C0 7.10765 2.05001 9.15767 4.57883 9.15767ZM4.57883 8.20734C6.58281 8.20734 8.20734 6.5828 8.20734 4.57883C8.20734 2.57486 6.58281 0.950324 4.57883 0.950324C2.57486 0.950324 0.950324 2.57486 0.950324 4.57883C0.950324 6.5828 2.57486 8.20734 4.57883 8.20734Z" fill="black"/>
<path d="M4.10367 2.20302C4.10367 1.96446 4.29707 1.77106 4.53564 1.77106C4.77421 1.77106 4.9676 1.96446 4.9676 2.20302V4.70842C4.9676 4.94699 4.77421 5.14039 4.53564 5.14039C4.29707 5.14039 4.10367 4.94699 4.10367 4.70842V2.20302Z" fill="black"/>
<path d="M7.34341 4.27646C7.58198 4.27646 7.77538 4.46986 7.77538 4.70842C7.77538 4.94699 7.58198 5.14039 7.34341 5.14039H4.53564C4.29707 5.14039 4.10367 4.94699 4.10367 4.70842C4.10367 4.46986 4.29707 4.27646 4.53564 4.27646H7.34341Z" fill="black"/>
<path d="M7.12743 9.46004C7.12743 9.19762 7.34017 8.98488 7.60259 8.98488H12.959C13.2214 8.98488 13.4341 9.19762 13.4341 9.46004C13.4341 9.72247 13.2214 9.93521 12.959 9.93521H7.60259C7.34017 9.93521 7.12743 9.72247 7.12743 9.46004Z" fill="black"/>
<path d="M5.14039 9.90612C4.95583 9.92535 4.76848 9.93521 4.57883 9.93521C4.32972 9.93521 4.08457 9.9182 3.84449 9.88528V18.2721C3.84449 19.2264 4.61808 20 5.57235 20H14.8596C15.8139 20 16.5875 19.2264 16.5875 18.2721V5.054C16.5875 4.09972 15.8139 3.32613 14.8596 3.32613H9.78792C9.88421 3.72799 9.93521 4.14746 9.93521 4.57883C9.93521 4.59325 9.93515 4.60765 9.93503 4.62203H14.8596C15.0982 4.62203 15.2916 4.81543 15.2916 5.054V18.2721C15.2916 18.5107 15.0982 18.7041 14.8596 18.7041H5.57235C5.33379 18.7041 5.14039 18.5107 5.14039 18.2721V9.90612Z" fill="black"/>
<path d="M7.12743 12.3974C7.12743 12.135 7.34017 11.9222 7.60259 11.9222H12.959C13.2214 11.9222 13.4341 12.135 13.4341 12.3974C13.4341 12.6598 13.2214 12.8726 12.959 12.8726H7.60259C7.34017 12.8726 7.12743 12.6598 7.12743 12.3974Z" fill="black"/>
<path d="M7.12743 15.3348C7.12743 15.0723 7.34017 14.8596 7.60259 14.8596H12.959C13.2214 14.8596 13.4341 15.0723 13.4341 15.3348C13.4341 15.5972 13.2214 15.8099 12.959 15.8099H7.60259C7.34017 15.8099 7.12743 15.5972 7.12743 15.3348Z" fill="black"/>
</svg>
