<svg width="24" height="24" viewBox="0 0 24 24" fill="none" xmlns="http://www.w3.org/2000/svg">
<path d="M9.11606 3.13707C8.6242 3.43541 8.64033 3.27415 8.64033 8.35392C8.64033 11.434 8.66452 12.9983 8.72096 12.9983C8.76934 12.9983 9.21281 12.837 9.70466 12.6354L10.6077 12.2726H15.2118C20.348 12.2726 20.2029 12.2887 20.5093 11.7082C20.6463 11.4502 20.6544 11.1599 20.6544 7.61211C20.6544 3.44347 20.6625 3.50798 20.1787 3.16933C19.9448 3 19.8803 3 14.6312 3C9.86593 3.00806 9.30151 3.01613 9.11606 3.13707ZM19.7997 3.93532C19.8884 4.16109 19.8561 11.1438 19.7675 11.3131C19.6868 11.4582 19.5497 11.4663 15.0505 11.4663C10.6077 11.4663 10.4062 11.4743 10.0111 11.6275C9.7853 11.7162 9.56759 11.7888 9.52728 11.7888C9.43858 11.7888 9.41439 3.95145 9.50309 3.86275C9.52728 3.8305 11.8495 3.80631 14.6554 3.80631C19.2272 3.80631 19.7513 3.82244 19.7997 3.93532Z" fill="currentColor"/>
<path d="M12.5026 5.23352C12.4542 5.36253 12.3332 5.67699 12.2284 5.94307C11.7043 7.26543 10.898 9.39409 10.898 9.4586C10.898 9.49891 11.0754 9.53117 11.2931 9.53117H11.6963L11.8575 9.0877C11.9462 8.8458 12.043 8.55553 12.0752 8.44264L12.1236 8.233L13.8411 8.28138L14.0749 8.90224L14.3087 9.53117H14.7441C14.978 9.53117 15.1715 9.50698 15.1715 9.48279C15.1715 9.4586 14.8893 8.74098 14.5425 7.89435C14.1958 7.03966 13.7927 6.0479 13.6475 5.67699L13.3815 5.01581H12.9864C12.6235 5.01581 12.5751 5.04 12.5026 5.23352ZM13.3169 6.86227L13.5508 7.51539H12.9864C12.4703 7.51539 12.4219 7.49926 12.4703 7.37025C12.5026 7.29768 12.6235 6.95903 12.7445 6.61231C12.8735 6.24141 12.9783 6.03983 13.0105 6.10434C13.0428 6.16078 13.1799 6.49943 13.3169 6.86227Z" fill="currentColor"/>
<path d="M16.3971 6.20111C16.1471 6.24949 15.6794 6.71715 15.6069 6.98323C15.5424 7.24932 15.6553 7.35414 16.0342 7.35414C16.2519 7.35414 16.3084 7.31382 16.3487 7.15256C16.4132 6.89454 16.6067 6.78972 17.0179 6.78972C17.3646 6.78972 17.671 6.99936 17.671 7.22513C17.671 7.3622 17.5662 7.40252 16.8325 7.5154C15.8971 7.66054 15.494 7.99113 15.494 8.60392C15.494 9.4183 16.4374 9.86177 17.3324 9.45055C17.6065 9.32154 17.671 9.32154 17.671 9.41024C17.671 9.49893 17.7678 9.53118 18.0339 9.53118H18.3967V8.20077C18.3967 6.69296 18.3403 6.49138 17.8807 6.27368C17.6227 6.15273 16.8567 6.11242 16.3971 6.20111ZM17.671 8.11207C17.671 8.5878 17.2759 8.96676 16.7841 8.96676C16.5583 8.96676 16.2197 8.73293 16.2197 8.57167C16.2197 8.42653 16.5019 8.27333 17.0179 8.15239C17.7033 7.98306 17.671 7.98306 17.671 8.11207Z" fill="currentColor"/>
<path d="M6.93908 5.36255C4.32663 7.18482 2.94783 10.144 3.2381 13.2805C3.43162 15.2479 4.19762 16.909 5.6006 18.3764C7.05196 19.8923 8.89036 20.7793 10.9787 20.9647C15.5908 21.3759 19.6224 18.1507 20.2513 13.5386C20.34 12.9419 20.3319 12.8774 20.2029 12.7806C20.0175 12.6436 19.7272 12.6436 19.5821 12.7887C19.5176 12.8532 19.445 13.1515 19.4208 13.4579C19.2676 15.0544 18.5177 16.5703 17.268 17.8362C16.3971 18.7151 15.8246 19.1182 14.849 19.5375C13.8331 19.9729 13.2364 20.102 12.0592 20.1503C10.5917 20.2148 9.49509 19.981 8.28562 19.3682C7.6567 19.0457 7.61638 18.9731 7.71314 18.3442C7.74539 18.0942 7.84215 17.9088 8.04373 17.7153C8.45495 17.304 8.86617 17.3202 9.83374 17.7878C11.398 18.5538 12.7123 18.7877 13.575 18.4571C14.2201 18.2071 14.6071 17.6104 14.6071 16.8686C14.6071 16.7074 14.6877 16.4171 14.7926 16.2236C15.1877 15.4415 16.131 15.1189 17.8001 15.2076L18.7758 15.2641L18.8806 15.0061C19.0983 14.4981 18.808 14.3771 17.3083 14.3771C15.1232 14.3691 13.9782 15.1028 13.8089 16.6429C13.7363 17.304 13.6234 17.5379 13.3331 17.6749C12.7042 17.9572 11.6963 17.7636 10.3337 17.1025C9.05162 16.4816 8.19693 16.4494 7.57607 17.0138C7.25354 17.304 6.86651 17.9813 6.86651 18.2555C6.86651 18.5055 6.7375 18.4168 6.18115 17.8201C5.36677 16.9251 4.82654 16.0623 5.08456 16.0623C5.30227 16.0623 5.6893 15.5705 6.01988 14.8932C6.33435 14.2401 6.42304 14.1191 6.78588 13.8853C7.31805 13.5466 7.89053 12.9016 8.14855 12.3533C8.334 11.9501 8.35819 11.8131 8.35819 10.9422C8.35819 10.0956 8.334 9.89403 8.13242 9.32155C7.68089 7.99113 7.21323 7.55572 6.2779 7.56379H5.73767L5.99569 7.28964C6.49561 6.75747 6.97133 6.34625 7.38255 6.07211C7.60832 5.91891 7.80184 5.7899 7.81796 5.77377C7.84379 5.75655 8.03589 5.49609 7.84448 5.22656C7.65798 4.96393 7.39649 5.10077 7.36643 5.10453C7.33417 5.10453 7.14066 5.21741 6.93908 5.36255ZM6.83426 8.57168C7.07615 8.79744 7.40674 9.64407 7.52769 10.3294C7.60026 10.7648 7.60026 11.0067 7.51963 11.4502C7.39062 12.1678 7.10034 12.6274 6.48755 13.0628C5.81831 13.5305 5.62479 13.7643 5.2942 14.482C5.02006 15.0947 4.8346 15.3286 4.64109 15.3366C4.54433 15.3366 4.246 14.4497 4.12505 13.8127C3.94766 12.8371 4.04442 11.1599 4.34275 10.2166C4.6169 9.33767 4.76204 9.09578 5.16519 8.82163C5.92313 8.30559 6.46336 8.22496 6.83426 8.57168Z" fill="currentColor"/>
</svg>
