<svg width="33" height="32" viewBox="0 0 33 32" fill="none" xmlns="http://www.w3.org/2000/svg">
<path d="M6.86978 28H24.8663C26.8721 28 27.875 27.3556 27.875 26.0668C27.875 25.2077 27.5964 24.3003 27.0392 23.3447C26.4914 22.3803 25.6974 21.4729 24.6574 20.6225C23.6173 19.7721 22.359 19.0838 20.8825 18.5578C19.406 18.023 17.7392 17.7556 15.882 17.7556C14.0155 17.7556 12.3439 18.023 10.8675 18.5578C9.39096 19.0838 8.13269 19.7721 7.09264 20.6225C6.0526 21.4729 5.25399 22.3803 4.69682 23.3447C4.14894 24.3003 3.875 25.2077 3.875 26.0668C3.875 27.3556 4.87326 28 6.86978 28ZM6.4519 26.4745C6.12689 26.4745 5.89938 26.4307 5.76937 26.343C5.64865 26.2641 5.58829 26.1151 5.58829 25.8959C5.58829 25.2822 5.8158 24.594 6.27082 23.8312C6.72584 23.0685 7.3898 22.3452 8.2627 21.6614C9.14488 20.9688 10.2221 20.3989 11.4943 19.9518C12.7758 19.5047 14.2383 19.2811 15.882 19.2811C17.5163 19.2811 18.9696 19.5047 20.2418 19.9518C21.5233 20.3989 22.6005 20.9688 23.4734 21.6614C24.3556 22.3452 25.0242 23.0685 25.4792 23.8312C25.9342 24.594 26.1617 25.2822 26.1617 25.8959C26.1617 26.1151 26.0967 26.2641 25.9667 26.343C25.846 26.4307 25.6278 26.4745 25.312 26.4745H6.4519ZM15.8959 15.9671C16.9731 15.9671 17.9528 15.6953 18.835 15.1518C19.7264 14.5995 20.4322 13.8674 20.9522 12.9556C21.4815 12.0438 21.7462 11.0268 21.7462 9.90466C21.7462 8.80877 21.4815 7.81808 20.9522 6.9326C20.4322 6.03836 19.7264 5.32822 18.835 4.80219C17.9528 4.2674 16.9731 4 15.8959 4C14.8187 4 13.8344 4.27178 12.9429 4.81534C12.0607 5.35014 11.355 6.06466 10.8257 6.9589C10.2964 7.85315 10.0363 8.83945 10.0456 9.91781C10.0456 11.0312 10.3056 12.0482 10.8257 12.9688C11.355 13.8805 12.0607 14.6082 12.9429 15.1518C13.8251 15.6953 14.8094 15.9671 15.8959 15.9671ZM15.8959 14.4285C15.1344 14.4285 14.438 14.2312 13.8065 13.8367C13.1843 13.4334 12.6875 12.8942 12.3161 12.2192C11.9446 11.5353 11.7589 10.7682 11.7589 9.91781C11.7589 9.11123 11.9446 8.37918 12.3161 7.72164C12.6875 7.05534 13.1843 6.52493 13.8065 6.13041C14.438 5.73589 15.1344 5.53863 15.8959 5.53863C16.6574 5.53863 17.3492 5.73151 17.9713 6.11726C18.5935 6.50301 19.0903 7.02904 19.4618 7.69534C19.8332 8.35288 20.0189 9.08931 20.0189 9.90466C20.0189 10.7463 19.8332 11.509 19.4618 12.1929C19.0996 12.8767 18.6028 13.4203 17.9713 13.8236C17.3492 14.2268 16.6574 14.4285 15.8959 14.4285Z" fill="currentColor"/>
</svg>
