<svg width="24" height="24" viewBox="0 0 24 24" fill="none" xmlns="http://www.w3.org/2000/svg">
<path d="M6.70345 22H17.2966C18.1916 22 18.8659 21.7752 19.3195 21.3255C19.7732 20.8819 20 20.2314 20 19.3741V10.1745C20 9.31115 19.7732 8.65767 19.3195 8.21403C18.8659 7.77038 18.1916 7.54856 17.2966 7.54856H14.6667V8.65468H17.269C17.7778 8.65468 18.1701 8.78957 18.446 9.05935C18.728 9.32314 18.869 9.71583 18.869 10.2374V19.3112C18.869 19.8327 18.728 20.2254 18.446 20.4892C18.1701 20.759 17.7778 20.8939 17.269 20.8939H6.73103C6.20996 20.8939 5.81149 20.759 5.53563 20.4892C5.2659 20.2254 5.13103 19.8327 5.13103 19.3112V10.2374C5.13103 9.71583 5.2659 9.32314 5.53563 9.05935C5.81149 8.78957 6.20996 8.65468 6.73103 8.65468H9.34253V7.54856H6.70345C5.80843 7.54856 5.1341 7.77038 4.68046 8.21403C4.22682 8.65168 4 9.30516 4 10.1745V19.3741C4 20.2434 4.22682 20.8969 4.68046 21.3345C5.1341 21.7782 5.80843 22 6.70345 22ZM12 15.0755C12.1533 15.0755 12.2851 15.0246 12.3954 14.9227C12.5057 14.8147 12.5609 14.6859 12.5609 14.536V4.85072L12.5241 3.53777L13.3425 4.3741L14.9057 5.96583C15.01 6.07974 15.1387 6.13669 15.292 6.13669C15.4391 6.13669 15.5617 6.08873 15.6598 5.99281C15.7579 5.89688 15.8069 5.77998 15.8069 5.64209C15.8069 5.51019 15.7517 5.39029 15.6414 5.28237L12.4046 2.18885C12.3372 2.11691 12.2697 2.06894 12.2023 2.04496C12.141 2.01499 12.0736 2 12 2C11.9264 2 11.8559 2.01499 11.7885 2.04496C11.7272 2.06894 11.6628 2.11691 11.5954 2.18885L8.34943 5.28237C8.24521 5.39029 8.1931 5.51019 8.1931 5.64209C8.1931 5.77998 8.23908 5.89688 8.33103 5.99281C8.42912 6.08873 8.55172 6.13669 8.69885 6.13669C8.85824 6.13669 8.98697 6.07974 9.08506 5.96583L10.6483 4.3741L11.4851 3.53777L11.4391 4.85072V14.536C11.4391 14.6859 11.4943 14.8147 11.6046 14.9227C11.7149 15.0246 11.8467 15.0755 12 15.0755Z" fill="currentColor"/>
</svg>
