<svg width="33" height="32" viewBox="0 0 33 32" fill="none" xmlns="http://www.w3.org/2000/svg">
<path d="M5.21996 19.1697L5.22011 19.17C5.65674 19.9791 6.25773 20.606 7.02281 21.0496L7.02297 21.0497C7.79459 21.4934 8.68098 21.7145 9.68064 21.7145C10.5403 21.7145 11.3335 21.5284 12.0596 21.1558L12.0599 21.1556C12.7837 20.7777 13.5347 20.2181 14.3129 19.4782L14.313 19.4781L16.625 17.2695L18.937 19.4781L18.9371 19.4782C19.7153 20.2181 20.4663 20.7777 21.1901 21.1556L21.1906 21.1559C21.9228 21.5284 22.716 21.7145 23.5694 21.7145C24.5627 21.7145 25.4459 21.4934 26.2175 21.0497C26.989 20.6061 27.5902 19.979 28.0205 19.1697C28.4574 18.36 28.675 17.4137 28.675 16.3323C28.675 15.2509 28.4574 14.3045 28.0205 13.4948C27.5902 12.6855 26.989 12.0585 26.2175 11.6148C25.4459 11.1712 24.5627 10.95 23.5694 10.95C22.7159 10.95 21.9226 11.1394 21.1903 11.5184C20.4663 11.89 19.7153 12.4464 18.9371 13.1863L18.937 13.1864L16.625 15.3951L14.313 13.1864L14.3129 13.1863C13.5347 12.4464 12.7837 11.89 12.0598 11.5184C11.3337 11.1393 10.5404 10.95 9.68064 10.95C8.68098 10.95 7.79459 11.1712 7.02297 11.6148L7.02281 11.6149C6.25773 12.0586 5.65674 12.6855 5.22011 13.4945L5.21996 13.4948C4.7894 14.3045 4.575 15.2509 4.575 16.3323C4.575 17.4137 4.7894 18.36 5.21996 19.1697ZM13.3191 14.175L15.6452 16.3322L13.3097 18.4895L13.3095 18.4896C12.6694 19.0854 12.0623 19.5405 11.4882 19.856C10.9231 20.1636 10.3209 20.3172 9.68064 20.3172C8.96363 20.3172 8.32378 20.1538 7.75979 19.828C7.20229 19.5022 6.76358 19.0418 6.44344 18.4456C6.12991 17.8435 5.9723 17.1396 5.9723 16.3323C5.9723 15.5185 6.12996 14.8146 6.4434 14.219C6.76356 13.6227 7.20233 13.1623 7.75992 12.8365L7.76007 12.8364C8.32402 12.5043 8.96376 12.3378 9.68064 12.3378C10.3207 12.3378 10.9261 12.4945 11.4976 12.8085C12.0717 13.124 12.6789 13.5791 13.3191 14.1749L13.3191 14.175ZM25.4802 12.8363L25.4805 12.8365C26.0381 13.1623 26.4736 13.6226 26.7874 14.2188L26.7876 14.2192C27.1073 14.8148 27.2682 15.5186 27.2682 16.3323C27.2682 17.1395 27.1074 17.8435 26.7875 18.4455L26.7874 18.4457C26.4736 19.0419 26.0381 19.5023 25.4805 19.8281C24.923 20.1538 24.2864 20.3172 23.5694 20.3172C22.9292 20.3172 22.3238 20.1636 21.7524 19.856C21.1845 19.5405 20.5773 19.0853 19.9307 18.4895L17.6047 16.3322L19.9212 14.1751C19.9212 14.175 19.9213 14.175 19.9213 14.175C20.5679 13.5791 21.1751 13.124 21.7429 12.8085C22.3143 12.4946 22.9229 12.3378 23.5694 12.3378C24.2862 12.3378 24.9227 12.5043 25.4802 12.8363Z" fill="currentColor" stroke="currentColor" stroke-width="0.1"/>
</svg>
