<svg width="24" height="24" viewBox="0 0 24 24" fill="none" xmlns="http://www.w3.org/2000/svg">
<path d="M15.5833 13.6667C16.0889 13.6667 16.5069 13.5014 16.8375 13.1708C17.1681 12.8403 17.3333 12.4222 17.3333 11.9167C17.3333 11.4111 17.1681 10.9931 16.8375 10.6625C16.5069 10.3319 16.0889 10.1667 15.5833 10.1667C15.0778 10.1667 14.6597 10.3319 14.3292 10.6625C13.9986 10.9931 13.8333 11.4111 13.8333 11.9167C13.8333 12.4222 13.9986 12.8403 14.3292 13.1708C14.6597 13.5014 15.0778 13.6667 15.5833 13.6667ZM3.1 21.8333C2.51667 21.8333 2.02083 21.6292 1.6125 21.2208C1.20417 20.8125 1 20.3167 1 19.7333V4.1C1 3.51667 1.20417 3.02083 1.6125 2.6125C2.02083 2.20417 2.51667 2 3.1 2H18.7333C19.3167 2 19.8125 2.20417 20.2208 2.6125C20.6292 3.02083 20.8333 3.51667 20.8333 4.1V7.27917H19.0833V4.1C19.0833 4.00278 19.0495 3.92033 18.9818 3.85267C18.9134 3.78422 18.8306 3.75 18.7333 3.75H3.1C3.00278 3.75 2.92033 3.78422 2.85267 3.85267C2.78422 3.92033 2.75 4.00278 2.75 4.1V19.7333C2.75 19.8306 2.78422 19.9134 2.85267 19.9818C2.92033 20.0495 3.00278 20.0833 3.1 20.0833H18.7333C18.8306 20.0833 18.9134 20.0495 18.9818 19.9818C19.0495 19.9134 19.0833 19.8306 19.0833 19.7333V16.5542H20.8333V19.7333C20.8333 20.3167 20.6292 20.8125 20.2208 21.2208C19.8125 21.6292 19.3167 21.8333 18.7333 21.8333H3.1ZM12.4333 17.1667C11.85 17.1667 11.3542 16.9625 10.9458 16.5542C10.5375 16.1458 10.3333 15.65 10.3333 15.0667V8.76667C10.3333 8.18333 10.5375 7.6875 10.9458 7.27917C11.3542 6.87083 11.85 6.66667 12.4333 6.66667H19.9C20.4833 6.66667 20.9792 6.87083 21.3875 7.27917C21.7958 7.6875 22 8.18333 22 8.76667V15.0667C22 15.65 21.7958 16.1458 21.3875 16.5542C20.9792 16.9625 20.4833 17.1667 19.9 17.1667H12.4333ZM19.9 15.4167C19.9972 15.4167 20.0801 15.3824 20.1485 15.314C20.2162 15.2463 20.25 15.1639 20.25 15.0667V8.76667C20.25 8.66945 20.2162 8.58661 20.1485 8.51817C20.0801 8.4505 19.9972 8.41667 19.9 8.41667H12.4333C12.3361 8.41667 12.2537 8.4505 12.186 8.51817C12.1176 8.58661 12.0833 8.66945 12.0833 8.76667V15.0667C12.0833 15.1639 12.1176 15.2463 12.186 15.314C12.2537 15.3824 12.3361 15.4167 12.4333 15.4167H19.9Z" fill="currentColor"/>
</svg>
