<svg width="24" height="24" viewBox="0 0 24 24" fill="none" xmlns="http://www.w3.org/2000/svg">
<path d="M17.2011 14.052C17.3077 13.887 17.3641 13.6933 17.3633 13.4953C17.3628 13.3637 17.337 13.2335 17.2873 13.1121C17.2376 12.9907 17.165 12.8805 17.0738 12.7879C16.9825 12.6953 16.8743 12.6221 16.7554 12.5724C16.6365 12.5227 16.5092 12.4975 16.3808 12.4983C16.1877 12.4995 15.9993 12.5594 15.8395 12.6703C15.6796 12.7812 15.5553 12.9383 15.4825 13.1215C15.4096 13.3048 15.3913 13.5061 15.43 13.7C15.4687 13.8939 15.5626 14.0717 15.6998 14.2109C15.837 14.3502 16.0114 14.4446 16.2009 14.4822C16.3905 14.5199 16.5866 14.4991 16.7646 14.4226C16.9427 14.346 17.0946 14.217 17.2011 14.052Z" fill="currentColor"/>
<path fill-rule="evenodd" clip-rule="evenodd" d="M3.80343 20.9976H11.9862L20.279 20.9873C20.5047 20.9892 20.7285 20.9452 20.9375 20.8578C21.1464 20.7705 21.3365 20.6415 21.4965 20.4784C21.6566 20.3153 21.7835 20.1213 21.8699 19.9075C21.9563 19.6938 22.0005 19.4646 22 19.2333V7.74505C22.0001 7.33897 21.8614 6.9457 21.608 6.63353C21.3547 6.32136 21.0027 6.11001 20.6132 6.03618C20.1547 5.98511 19.6927 5.97413 19.2324 6.00335C19.0983 6.0013 19.0703 5.96232 19.0703 5.83103V3.64416C19.0703 3.18463 18.8922 3 18.4479 3H4.06359C2.83487 3 2.00239 3.85341 2.00239 5.11712V19.1512C1.98971 19.3971 2.02761 19.643 2.11363 19.8729C2.19966 20.1028 2.33188 20.3116 2.50172 20.4857C2.67156 20.6598 2.87522 20.7953 3.09948 20.8835C3.32374 20.9717 3.56358 21.0106 3.80343 20.9976ZM4.36258 7.00076C3.90053 7.0026 3.42333 7.00451 2.97699 6.72352L2.97099 6.89994V19.2088C2.96261 19.3174 2.97781 19.4267 3.01549 19.5286C3.05316 19.6305 3.11239 19.7227 3.18891 19.7984C3.26543 19.8741 3.35735 19.9315 3.45807 19.9664C3.55879 20.0014 3.66581 20.0131 3.77145 20.0006H20.213C20.321 20.0126 20.4302 19.9997 20.5326 19.9627C20.6351 19.9257 20.7281 19.8656 20.8049 19.7869C20.8817 19.7081 20.9403 19.6127 20.9764 19.5077C21.0125 19.4027 21.0252 19.2907 21.0135 19.18V16.4536C21.0255 16.2813 20.9794 16.2485 20.8133 16.2485H14.0094C13.8395 16.2566 13.6699 16.2284 13.5112 16.1657C13.3525 16.103 13.2083 16.0072 13.0877 15.8843C12.9671 15.7614 12.8727 15.6142 12.8105 15.4519C12.7484 15.2896 12.7198 15.1159 12.7267 14.9417V12.1004C12.7148 11.9212 12.7405 11.7414 12.8021 11.5732C12.8638 11.4051 12.9598 11.2524 13.0838 11.1254C13.2078 10.9985 13.3569 10.9003 13.5211 10.8374C13.6852 10.7745 13.8606 10.7484 14.0354 10.7608H20.8213C20.9714 10.7608 21.0215 10.7259 21.0215 10.5557V7.88875C21.0215 7.27126 20.7593 7.00046 20.159 7.00046H4.47386L4.36258 7.00076ZM3.99352 5.9992H10.9195C13.2462 5.99646 15.5682 5.9992 17.8856 6.0074C18.0457 6.0074 18.0977 5.98484 18.0977 5.80225C18.0817 5.27503 18.0797 4.7478 18.0977 4.22057C18.1037 4.02363 18.0377 4.00312 17.8716 4.00312H3.88146C3.68454 4.01516 3.49603 4.08921 3.34168 4.21514C3.18732 4.34107 3.07462 4.51275 3.01896 4.70677C2.97196 4.85983 2.96178 5.02228 2.98927 5.18026C3.01677 5.33823 3.08113 5.48704 3.17686 5.614C3.27259 5.74096 3.39686 5.8423 3.53907 5.90937C3.68127 5.97644 3.83719 6.00726 3.99352 5.9992ZM20.8374 11.7494H17.4234L14.0514 11.7576C13.7672 11.7576 13.7072 11.8192 13.7072 12.1105V14.9025C13.7072 15.1918 13.7692 15.2554 14.0514 15.2554H20.8374C20.9894 15.2554 21.0255 15.2205 21.0255 15.0646C21.0175 14.0238 21.0175 12.9824 21.0255 11.9402C21.0255 11.7843 20.9894 11.7494 20.8374 11.7494Z" fill="currentColor"/>
</svg>
