<svg width="24" height="24" viewBox="0 0 24 24" fill="none" xmlns="http://www.w3.org/2000/svg">
<path d="M12 22C13.3692 22 14.6554 21.7375 15.8584 21.2124C17.0681 20.6939 18.1316 19.9761 19.0489 19.0588C19.9661 18.1349 20.6873 17.0715 21.2124 15.8684C21.7375 14.6587 22 13.3692 22 12C22 10.6308 21.7375 9.34463 21.2124 8.14157C20.6873 6.93187 19.9661 5.86839 19.0489 4.95115C18.1316 4.02725 17.0681 3.30608 15.8584 2.78764C14.6487 2.26255 13.3593 2 11.99 2C10.6208 2 9.33134 2.26255 8.12163 2.78764C6.91858 3.30608 5.85842 4.02725 4.94118 4.95115C4.02393 5.86839 3.30276 6.93187 2.77767 8.14157C2.25922 9.34463 2 10.6308 2 12C2 13.3692 2.25922 14.6587 2.77767 15.8684C3.30276 17.0715 4.02393 18.1349 4.94118 19.0588C5.86507 19.9761 6.92855 20.6939 8.13161 21.2124C9.34131 21.7375 10.6308 22 12 22ZM12 20.7139C10.7903 20.7139 9.66035 20.4879 8.61017 20.0359C7.55999 19.5839 6.63609 18.9591 5.83848 18.1615C5.04088 17.3639 4.41609 16.44 3.96411 15.3898C3.51878 14.333 3.29611 13.2031 3.29611 12C3.29611 10.7969 3.51878 9.67032 3.96411 8.62014C4.41609 7.56331 5.03755 6.63609 5.82851 5.83848C6.62612 5.03423 7.55002 4.40944 8.6002 3.96411C9.65703 3.51213 10.787 3.28614 11.99 3.28614C13.1997 3.28614 14.3297 3.51213 15.3799 3.96411C16.43 4.40944 17.3539 5.03423 18.1515 5.83848C18.9558 6.63609 19.5839 7.56331 20.0359 8.62014C20.4879 9.67032 20.7139 10.7969 20.7139 12C20.7139 13.2031 20.4879 14.333 20.0359 15.3898C19.5906 16.44 18.9691 17.3639 18.1715 18.1615C17.3739 18.9591 16.4467 19.5839 15.3898 20.0359C14.333 20.4879 13.2031 20.7139 12 20.7139ZM10.2154 17.4237H14.2931C14.4593 17.4237 14.5955 17.3706 14.7019 17.2642C14.8082 17.1579 14.8614 17.0282 14.8614 16.8754C14.8614 16.7225 14.8082 16.5929 14.7019 16.4865C14.5955 16.3802 14.4593 16.327 14.2931 16.327H12.8674V10.7238C12.8674 10.5244 12.8142 10.3616 12.7079 10.2353C12.6015 10.109 12.452 10.0459 12.2592 10.0459H10.345C10.1788 10.0459 10.0425 10.099 9.93619 10.2054C9.82984 10.3117 9.77667 10.4413 9.77667 10.5942C9.77667 10.7537 9.82984 10.8867 9.93619 10.993C10.0425 11.0927 10.1788 11.1426 10.345 11.1426H11.651V16.327H10.2154C10.0558 16.327 9.91957 16.3802 9.80658 16.4865C9.70023 16.5929 9.64706 16.7225 9.64706 16.8754C9.64706 17.0282 9.70023 17.1579 9.80658 17.2642C9.91957 17.3706 10.0558 17.4237 10.2154 17.4237ZM11.9402 8.22134C12.2459 8.22134 12.5018 8.11499 12.7079 7.90229C12.9206 7.6896 13.0269 7.4337 13.0269 7.1346C13.0269 6.82885 12.9206 6.56962 12.7079 6.35693C12.5018 6.14423 12.2459 6.03789 11.9402 6.03789C11.6411 6.03789 11.3852 6.14423 11.1725 6.35693C10.9598 6.56962 10.8534 6.82885 10.8534 7.1346C10.8534 7.4337 10.9598 7.6896 11.1725 7.90229C11.3852 8.11499 11.6411 8.22134 11.9402 8.22134Z" fill="currentColor"/>
</svg>
