<svg t="1664181419153" class="icon" viewBox="0 0 1024 1024" version="1.1" xmlns="http://www.w3.org/2000/svg" p-id="11878" width="200" height="200"><path d="M537.6 397.653333h-27.306667c-8.533333 0-17.066667-5.12-18.773333-13.653333-5.12-18.773333-11.946667-35.84-22.186667-52.906667-5.12-6.826667-3.413333-17.066667 3.413334-23.893333l18.773333-18.773333c6.826667-6.826667 6.826667-20.48 0-27.306667l-23.893333-23.893333c-6.826667-6.826667-20.48-6.826667-27.306667 0l-17.066667 18.773333c-6.826667 6.826667-15.36 6.826667-23.893333 3.413333-17.066667-10.24-34.133333-17.066667-52.906667-22.186666-8.533333-1.706667-13.653333-10.24-13.653333-18.773334v-27.306666c0-10.24-8.533333-18.773333-18.773333-18.773334h-32.426667c-10.24 0-18.773333 8.533333-18.773333 18.773334v27.306666c0 8.533333-5.12 17.066667-13.653334 18.773334-18.773333 5.12-35.84 11.946667-52.906666 22.186666-6.826667 5.12-17.066667 3.413333-23.893334-3.413333L153.6 237.226667c-6.826667-6.826667-20.48-6.826667-27.306667 0L102.4 261.12c-6.826667 6.826667-6.826667 20.48 0 27.306667l17.066667 17.066666c6.826667 6.826667 6.826667 15.36 3.413333 23.893334-10.24 17.066667-17.066667 34.133333-22.186667 52.906666-1.706667 8.533333-10.24 13.653333-18.773333 13.653334H52.906667c-10.24 0-18.773333 8.533333-18.773334 18.773333v32.426667c0 10.24 8.533333 18.773333 18.773334 18.773333h27.306666c8.533333 0 17.066667 5.12 18.773334 13.653333 5.12 18.773333 11.946667 35.84 22.186666 52.906667 5.12 6.826667 3.413333 17.066667-3.413333 23.893333l-18.773333 18.773334c-6.826667 6.826667-6.826667 20.48 0 27.306666l23.893333 23.893334c6.826667 6.826667 20.48 6.826667 27.306667 0l18.773333-18.773334c6.826667-6.826667 15.36-6.826667 23.893333-3.413333 17.066667 10.24 34.133333 17.066667 52.906667 22.186667 8.533333 1.706667 13.653333 10.24 13.653333 18.773333v27.306667c0 10.24 8.533333 18.773333 18.773334 18.773333h32.426666c10.24 0 18.773333-8.533333 18.773334-18.773333v-27.306667c0-8.533333 5.12-17.066667 13.653333-18.773333 18.773333-5.12 35.84-11.946667 52.906667-22.186667 6.826667-5.12 17.066667-3.413333 23.893333 3.413333l18.773333 18.773334c6.826667 6.826667 20.48 6.826667 27.306667 0l23.893333-23.893334c6.826667-6.826667 6.826667-20.48 0-27.306666l-18.773333-18.773334c-6.826667-6.826667-6.826667-15.36-3.413333-23.893333 10.24-17.066667 17.066667-34.133333 22.186666-52.906667 1.706667-8.533333 10.24-13.653333 18.773334-13.653333h27.306666c10.24 0 18.773333-8.533333 18.773334-18.773333v-32.426667c3.413333-8.533333-5.12-17.066667-17.066667-17.066667z m-242.346667 100.693334c-35.84 0-64.853333-29.013333-64.853333-64.853334s29.013333-64.853333 64.853333-64.853333 64.853333 29.013333 64.853334 64.853333-27.306667 64.853333-64.853334 64.853334zM660.48 232.106667H955.733333c18.773333 0 34.133333-15.36 34.133334-34.133334s-15.36-34.133333-34.133334-34.133333H660.48c-18.773333 0-34.133333 15.36-34.133333 34.133333s15.36 34.133333 34.133333 34.133334zM955.733333 486.4H660.48c-18.773333 0-34.133333 15.36-34.133333 34.133333s15.36 34.133333 34.133333 34.133334H955.733333c18.773333 0 34.133333-15.36 34.133334-34.133334s-15.36-34.133333-34.133334-34.133333zM955.733333 808.96H213.333333c-18.773333 0-34.133333 15.36-34.133333 34.133333s15.36 34.133333 34.133333 34.133334H955.733333c18.773333 0 34.133333-15.36 34.133334-34.133334s-15.36-34.133333-34.133334-34.133333z" fill="currentColor" p-id="11879"></path></svg>