<svg width="24" height="24" viewBox="0 0 24 24" fill="none" xmlns="http://www.w3.org/2000/svg">
<path d="M10.7233 11.4313H12.4674V6.00948C12.4674 5.76935 12.3819 5.56385 12.2111 5.39299C12.0407 5.22262 11.8355 5.13744 11.5953 5.13744C11.3552 5.13744 11.15 5.22262 10.9796 5.39299C10.8087 5.56385 10.7233 5.76935 10.7233 6.00948V11.4313ZM6.24936 14.3128H16.9413V12.7962C16.9413 12.733 16.9191 12.6792 16.8746 12.6347C16.8306 12.5907 16.777 12.5687 16.7138 12.5687H6.47685C6.41366 12.5687 6.35982 12.5907 6.31534 12.6347C6.27136 12.6792 6.24936 12.733 6.24936 12.7962V14.3128ZM5.39628 18.8626H7.31098V17.1564C7.31098 17.0047 7.36456 16.872 7.47173 16.7583C7.57941 16.6445 7.7154 16.5877 7.8797 16.5877C8.04399 16.5877 8.17998 16.6445 8.28766 16.7583C8.39483 16.872 8.44842 17.0047 8.44842 17.1564V18.8626H11.0266V17.1564C11.0266 17.0047 11.0805 16.872 11.1881 16.7583C11.2953 16.6445 11.431 16.5877 11.5953 16.5877C11.7596 16.5877 11.8956 16.6445 12.0033 16.7583C12.1105 16.872 12.1641 17.0047 12.1641 17.1564V18.8626H14.7423V17.1564C14.7423 17.0047 14.7961 16.872 14.9038 16.7583C15.0109 16.6445 15.1467 16.5877 15.311 16.5877C15.4753 16.5877 15.6113 16.6445 15.7189 16.7583C15.8261 16.872 15.8797 17.0047 15.8797 17.1564V18.8626H17.7944C17.8702 18.8626 17.9334 18.8342 17.984 18.7776C18.0345 18.7205 18.0472 18.654 18.0219 18.5782L17.1878 15.4502H6.00292L5.1688 18.5782C5.14352 18.654 5.15616 18.7205 5.20671 18.7776C5.25726 18.8342 5.32046 18.8626 5.39628 18.8626ZM17.8513 20H5.33941C4.90971 20 4.55913 19.8294 4.28766 19.4882C4.01568 19.1469 3.93657 18.7678 4.05031 18.3507L5.11192 14.4455V12.7583C5.11192 12.3918 5.24159 12.0789 5.50093 11.8195C5.75976 11.5607 6.07243 11.4313 6.43894 11.4313H9.58586V6.00948C9.58586 5.4534 9.78175 4.97946 10.1735 4.58768C10.5653 4.19589 11.0393 4 11.5953 4C12.1514 4 12.6254 4.19589 13.0171 4.58768C13.4089 4.97946 13.6048 5.4534 13.6048 6.00948V11.4313H16.7517C17.1182 11.4313 17.4312 11.5607 17.6905 11.8195C17.9493 12.0789 18.0787 12.3918 18.0787 12.7583V14.4455L19.1404 18.3507C19.2794 18.7678 19.2132 19.1469 18.9417 19.4882C18.6697 19.8294 18.3062 20 17.8513 20Z" fill="currentColor"/>
</svg>
