<svg width="16" height="16" viewBox="0 0 16 16" fill="none" xmlns="http://www.w3.org/2000/svg">
<path d="M1.90597 1.91806L10.286 0.721395C10.3333 0.714611 10.3815 0.718073 10.4273 0.731545C10.4731 0.745018 10.5156 0.768188 10.5517 0.799484C10.5878 0.830779 10.6167 0.86947 10.6365 0.912934C10.6564 0.956397 10.6666 1.00362 10.6666 1.0514V14.9487C10.6666 14.9964 10.6564 15.0436 10.6366 15.087C10.6168 15.1304 10.5879 15.1691 10.5519 15.2004C10.5158 15.2316 10.4735 15.2548 10.4278 15.2683C10.382 15.2819 10.3339 15.2854 10.2866 15.2787L1.90531 14.0821C1.74639 14.0594 1.60097 13.9802 1.49577 13.859C1.39057 13.7377 1.33264 13.5826 1.33264 13.4221V2.57806C1.33264 2.41754 1.39057 2.2624 1.49577 2.14116C1.60097 2.01991 1.74639 1.9407 1.90531 1.91806H1.90597ZM2.66664 3.15673V12.8434L9.33331 13.7961V2.20406L2.66664 3.15673ZM11.3333 12.6667H13.3333V3.3334H11.3333V2.00006H14C14.1768 2.00006 14.3464 2.0703 14.4714 2.19532C14.5964 2.32035 14.6666 2.48992 14.6666 2.66673V13.3334C14.6666 13.5102 14.5964 13.6798 14.4714 13.8048C14.3464 13.9298 14.1768 14.0001 14 14.0001H11.3333V12.6667ZM6.79998 8.00006L8.66664 10.6667H7.06664L5.99998 9.14273L4.93331 10.6667H3.33331L5.19998 8.00006L3.33331 5.3334H4.93331L5.99998 6.8574L7.06664 5.3334H8.66664L6.79998 8.00006Z" fill="currentColor"/>
</svg>
