<svg width="20" height="13" viewBox="0 0 20 13" fill="none" xmlns="http://www.w3.org/2000/svg">
<path d="M0.809107 2.37343C0.575361 2.37343 0.38225 2.29251 0.229776 2.13069C0.0765817 1.96886 -1.52588e-05 1.78007 -1.52588e-05 1.5643C-1.52588e-05 1.33056 0.0765817 1.13745 0.229776 0.984971C0.38225 0.831777 0.575361 0.755181 0.809107 0.755181H4.26136C4.49511 0.755181 4.68822 0.831777 4.84069 0.984971C4.99389 1.13745 5.07048 1.33056 5.07048 1.5643C5.07048 1.78007 4.99389 1.96886 4.84069 2.13069C4.68822 2.29251 4.49511 2.37343 4.26136 2.37343H0.809107ZM0.809107 7.63272C0.575361 7.63272 0.38225 7.55612 0.229776 7.40293C0.0765817 7.25045 -1.52588e-05 7.05734 -1.52588e-05 6.8236C-1.52588e-05 6.58985 0.0765817 6.39638 0.229776 6.24319C0.38225 6.09071 0.575361 6.01447 0.809107 6.01447H4.26136C4.49511 6.01447 4.68822 6.09071 4.84069 6.24319C4.99389 6.39638 5.07048 6.58985 5.07048 6.8236C5.07048 7.05734 4.99389 7.25045 4.84069 7.40293C4.68822 7.55612 4.49511 7.63272 4.26136 7.63272H0.809107ZM18.6368 12.3526L15.0766 8.79246C14.6631 9.09813 14.2179 9.3272 13.741 9.47968C13.2649 9.63287 12.7751 9.70947 12.2717 9.70947C10.9231 9.70947 9.77706 9.2373 8.83344 8.29296C7.88911 7.34935 7.41694 6.20327 7.41694 4.85473C7.41694 3.5062 7.88911 2.35976 8.83344 1.41542C9.77706 0.471808 10.9231 0 12.2717 0C13.6202 0 14.7663 0.471808 15.7099 1.41542C16.6542 2.35976 17.1264 3.5062 17.1264 4.85473C17.1264 5.35819 17.0455 5.84798 16.8837 6.3241C16.7218 6.80094 16.4971 7.24614 16.2094 7.65969L19.7695 11.2198C19.9134 11.3637 19.99 11.5478 19.9993 11.7722C20.008 11.9973 19.9314 12.1908 19.7695 12.3526C19.6077 12.5144 19.4146 12.5953 19.1902 12.5953C18.9651 12.5953 18.7806 12.5144 18.6368 12.3526ZM12.2717 8.09122C13.1707 8.09122 13.9349 7.77656 14.5642 7.14725C15.1935 6.51793 15.5082 5.75376 15.5082 4.85473C15.5082 3.95571 15.1935 3.19154 14.5642 2.56222C13.9349 1.9329 13.1707 1.61824 12.2717 1.61824C11.3726 1.61824 10.6085 1.9329 9.97916 2.56222C9.34984 3.19154 9.03518 3.95571 9.03518 4.85473C9.03518 5.75376 9.34984 6.51793 9.97916 7.14725C10.6085 7.77656 11.3726 8.09122 12.2717 8.09122ZM0.809107 12.892C0.575361 12.892 0.38225 12.8158 0.229776 12.6633C0.0765817 12.5101 -1.52588e-05 12.3166 -1.52588e-05 12.0829C-1.52588e-05 11.8671 0.0765817 11.6783 0.229776 11.5165C0.38225 11.3547 0.575361 11.2738 0.809107 11.2738H9.65551C9.88926 11.2738 10.0824 11.3547 10.2348 11.5165C10.388 11.6783 10.4646 11.8671 10.4646 12.0829C10.4646 12.3166 10.388 12.5101 10.2348 12.6633C10.0824 12.8158 9.88926 12.892 9.65551 12.892H0.809107Z" fill="#1C1B1F"/>
</svg>
