<?xml version="1.0" standalone="no"?><!DOCTYPE svg PUBLIC "-//W3C//DTD SVG 1.1//EN" "http://www.w3.org/Graphics/SVG/1.1/DTD/svg11.dtd"><svg t="1639834436695" class="icon" viewBox="0 0 1024 1024" version="1.1" xmlns="http://www.w3.org/2000/svg" p-id="6119" xmlns:xlink="http://www.w3.org/1999/xlink" width="64" height="64"><defs><style type="text/css"></style></defs><path d="M55.478857 336.018286c21.065143 0 31.597714-10.715429 31.597714-32.109715V176.384c0-29.622857 7.497143-51.858286 22.454858-66.816 15.286857-14.994286 37.376-22.454857 66.267428-22.454857h129.462857c21.430857 0 32.146286-10.532571 32.146286-31.634286 0-20.736-10.715429-31.085714-32.146286-31.085714H174.262857c-49.627429 0-87.04 12.397714-112.164571 37.229714C36.937143 86.454857 24.393143 123.501714 24.393143 172.8V303.908571c0 21.394286 10.349714 32.109714 31.085714 32.109715z m912.530286 0c21.065143 0 31.597714-10.715429 31.597714-32.109715V172.8c0-48.969143-12.580571-85.869714-37.705143-110.665143-25.161143-25.161143-62.72-37.741714-112.64-37.741714h-130.56c-21.394286 0-32.109714 10.349714-32.109714 31.085714 0 21.101714 10.715429 31.634286 32.109714 31.634286h128.987429c28.233143 0 50.139429 7.497143 65.792 22.454857 15.616 14.957714 23.405714 37.229714 23.405714 66.816V303.908571c0 21.394286 10.386286 32.109714 31.122286 32.109715zM174.262857 999.606857h130.998857c21.430857 0 32.146286-10.349714 32.146286-31.085714 0-21.101714-10.715429-31.634286-32.146286-31.634286h-129.462857c-28.891429 0-50.980571-7.497143-66.267428-22.454857-14.994286-14.957714-22.454857-37.229714-22.454858-66.816V720.091429c0-21.394286-10.532571-32.109714-31.597714-32.109715-20.736 0-31.085714 10.715429-31.085714 32.109715v130.56c0 49.334857 12.544 86.381714 37.705143 111.213714 25.161143 25.161143 62.537143 37.741714 112.164571 37.741714z m544.438857 0h130.56c49.92 0 87.478857-12.580571 112.64-37.741714 25.124571-24.795429 37.705143-61.878857 37.705143-111.177143v-130.56c0-21.430857-10.532571-32.182857-31.597714-32.182857-20.736 0-31.085714 10.752-31.085714 32.182857v127.488c0 29.586286-7.826286 51.858286-23.478858 66.816-15.616 14.994286-37.522286 22.454857-65.755428 22.454857h-128.950857c-21.430857 0-32.146286 10.532571-32.146286 31.634286 0 20.736 10.715429 31.085714 32.109714 31.085714z m-434.834285-237.677714h181.504c6.436571 0 11.702857-2.048 15.798857-6.107429a22.820571 22.820571 0 0 0 6.582857-16.822857V557.348571c0-6.436571-2.194286-11.702857-6.582857-15.798857a20.516571 20.516571 0 0 0-15.798857-6.619428H283.867429a22.162286 22.162286 0 0 0-16.310858 6.582857 20.553143 20.553143 0 0 0-6.619428 15.835428v181.577143c0 6.802286 2.194286 12.434286 6.582857 16.822857 4.461714 4.096 9.874286 6.144 16.347429 6.144z m22.418285-45.385143v-136.704h136.118857v136.704H306.285714z m39.789715-40.301714h57.051428v-56.612572h-57.051428v56.612572z m-62.208-187.209143h181.504c6.436571 0 11.702857-2.011429 15.798857-6.107429 4.388571-4.388571 6.582857-9.874286 6.582857-16.310857V285.037714a22.198857 22.198857 0 0 0-6.582857-16.347428 20.516571 20.516571 0 0 0-15.798857-6.619429H283.867429a22.162286 22.162286 0 0 0-16.310858 6.619429 22.198857 22.198857 0 0 0-6.619428 16.347428v181.577143c0 6.436571 2.194286 11.885714 6.582857 16.310857 4.461714 4.096 9.874286 6.107429 16.347429 6.107429z m22.418285-45.348572V307.419429h136.118857v136.192H306.285714z m39.789715-39.826285h57.051428V346.733714h-57.051428v57.124572z m209.517714 85.211428h181.979428a20.736 20.736 0 0 0 15.323429-6.144c4.388571-4.388571 6.582857-9.874286 6.582857-16.310857V285.037714a22.198857 22.198857 0 0 0-6.582857-16.347428 19.931429 19.931429 0 0 0-15.323429-6.619429h-181.979428a23.296 23.296 0 0 0-16.310857 6.619429 22.198857 22.198857 0 0 0-6.619429 16.347428v181.577143c0 6.436571 2.194286 11.885714 6.582857 16.310857 4.754286 4.096 10.24 6.107429 16.347429 6.107429z m22.418286-45.421714V307.456h136.630857v136.192h-136.630857z m40.265142-39.789714h56.612572V346.733714h-56.612572v57.124572z m-78.994285 350.939428h57.088V698.148571h-57.088v56.612572z m157.001143 0H753.371429V698.148571h-57.051429v56.612572z m-78.518858-78.555428h57.124572v-56.612572h-57.124572v56.612572z m-78.482285-78.555429h57.088v-56.612571h-57.088v56.612571z m157.001143 0H753.371429v-56.612571h-57.051429v56.612571z" p-id="6120" fill="currentColor"></path></svg>