<svg width="25" height="25" viewBox="0 0 25 25" fill="none" xmlns="http://www.w3.org/2000/svg">
<mask id="mask0_2596_9381" style="mask-type:alpha" maskUnits="userSpaceOnUse" x="0" y="0" width="25" height="25">
<rect x="0.384644" y="0.307617" width="24" height="24" fill="#D9D9D9"/>
</mask>
<g mask="url(#mask0_2596_9381)">
<path d="M12.4402 22.7549C12.1814 22.7549 11.9333 22.7117 11.696 22.6255C11.4587 22.5392 11.2322 22.4097 11.0165 22.2372L2.83006 15.8951C2.5712 15.701 2.44177 15.4473 2.44177 15.1341C2.44177 14.8217 2.5712 14.5684 2.83006 14.3743C3.00264 14.2449 3.19678 14.1802 3.4125 14.1802C3.62821 14.1802 3.83314 14.2449 4.02729 14.3743L12.1814 20.684C12.2677 20.7487 12.3539 20.7811 12.4402 20.7811C12.5265 20.7811 12.6128 20.7487 12.6991 20.684L20.8532 14.3743C21.0473 14.2449 21.2523 14.1802 21.468 14.1802C21.6837 14.1802 21.8778 14.2449 22.0504 14.3743C22.3093 14.5684 22.4387 14.8217 22.4387 15.1341C22.4387 15.4473 22.3093 15.701 22.0504 15.8951L13.864 22.2372C13.6482 22.4097 13.4217 22.5392 13.1845 22.6255C12.9472 22.7117 12.6991 22.7549 12.4402 22.7549ZM12.4402 16.9953C12.1814 16.9953 11.9333 16.9521 11.696 16.8658C11.4587 16.7795 11.2322 16.6609 11.0165 16.5099L3.05656 10.3296C2.88399 10.2002 2.76017 10.0544 2.6851 9.89214C2.60917 9.73079 2.5712 9.56382 2.5712 9.39125C2.5712 9.21867 2.60917 9.0461 2.6851 8.87353C2.76017 8.70095 2.87321 8.56074 3.02421 8.45288L10.9841 2.2726C11.1999 2.1216 11.432 1.99735 11.6805 1.89984C11.9281 1.8032 12.1814 1.75488 12.4402 1.75488C12.6991 1.75488 12.9472 1.79803 13.1845 1.88431C13.4217 1.9706 13.6482 2.10003 13.864 2.2726L21.8239 8.45288C21.9965 8.58231 22.1207 8.7277 22.1967 8.88906C22.2717 9.05128 22.3093 9.21867 22.3093 9.39125C22.3093 9.56382 22.2717 9.73079 22.1967 9.89214C22.1207 10.0544 22.0073 10.2002 21.8563 10.3296L13.8963 16.5099C13.6806 16.6609 13.4489 16.7795 13.2013 16.8658C12.9528 16.9521 12.6991 16.9953 12.4402 16.9953ZM12.1814 14.9567C12.2677 15.0214 12.3539 15.0538 12.4402 15.0538C12.5265 15.0538 12.6128 15.0214 12.6991 14.9567L19.8825 9.39125L12.6991 3.82576C12.6128 3.76105 12.5265 3.72869 12.4402 3.72869C12.3539 3.72869 12.2677 3.76105 12.1814 3.82576L4.99801 9.39125L12.1814 14.9567Z" fill="currentColor"/>
</g>
</svg>
