<?xml version="1.0" standalone="no"?><!DOCTYPE svg PUBLIC "-//W3C//DTD SVG 1.1//EN" "http://www.w3.org/Graphics/SVG/1.1/DTD/svg11.dtd"><svg t="1639834388472" class="icon" viewBox="0 0 1024 1024" version="1.1" xmlns="http://www.w3.org/2000/svg" p-id="5607" xmlns:xlink="http://www.w3.org/1999/xlink" width="64" height="64"><defs><style type="text/css"></style></defs><path d="M234.333158 562.008413h277.160819a26.026493 26.026493 0 0 0 19.882534-8.106612 27.050486 27.050486 0 0 0 8.191945-19.967867V176.133652a25.429164 25.429164 0 0 0-8.191945-19.45587 26.026493 26.026493 0 0 0-19.882534-8.106612 26.453157 26.453157 0 0 0-19.370538 8.106612 25.429164 25.429164 0 0 0-8.191945 19.45587v330.237799H234.333158a27.733148 27.733148 0 0 0-20.479864 8.191945 27.391817 27.391817 0 0 0-7.679948 19.370538c0 7.850614 2.559983 14.50657 7.679948 19.967867a27.733148 27.733148 0 0 0 20.479864 8.106612zM512.005973 1024c70.143532 0 135.935094-13.482577 197.54535-40.362398a516.348558 516.348558 0 0 0 163.326911-110.249931 531.452457 531.452457 0 0 0 110.761928-163.326911C1010.605316 648.109173 1024.00256 582.061613 1024.00256 512.003413c0-70.143532-13.482577-135.935094-40.362398-197.545349a523.431177 523.431177 0 0 0-110.761928-163.326912A512.252585 512.252585 0 0 0 709.551323 40.369224 492.02872 492.02872 0 0 0 511.493977 0.006827c-70.143532 0-136.105759 13.482577-198.057347 40.362397A513.873908 513.873908 0 0 0 150.621716 151.04582 523.601843 523.601843 0 0 0 39.859788 314.458064 493.820708 493.820708 0 0 0 0.009387 512.003413c0 70.143532 13.311911 136.105759 39.850401 198.057347a531.623123 531.623123 0 0 0 110.761928 163.326911c47.274352 46.93302 101.716655 83.711442 163.326911 110.249931 61.951587 26.965154 127.999147 40.362398 198.057346 40.362398z m0-65.876894a434.343771 434.343771 0 0 1-173.566843-34.645103 450.727662 450.727662 0 0 1-237.907747-237.907747A442.365051 442.365051 0 0 1 66.398277 512.003413c0-61.610256 11.349258-119.295205 34.133106-173.054846a453.45831 453.45831 0 0 1 95.572696-142.420384A439.634402 439.634402 0 0 1 337.927134 100.528823 436.733088 436.733088 0 0 1 511.493977 65.883721a434.343771 434.343771 0 0 1 173.566843 34.645102c53.759642 22.869181 101.033993 54.868968 141.908387 95.99936 41.130392 40.874394 73.386177 88.319411 96.426024 142.505717 23.210512 53.759642 34.730435 111.359258 34.730435 172.969513a443.645042 443.645042 0 0 1-130.132466 315.47523 449.106339 449.106339 0 0 1-142.505717 95.914028A436.647756 436.647756 0 0 1 512.005973 958.208439z" p-id="5608" fill="currentColor"></path></svg>